0
SECTION
2
HEADER
9
$INSUNITS
70
4
9
$ACADVER
1
AC1014
9
$HANDSEED
5
FFFF
0
ENDSEC
0
SECTION
2
TABLES
0
TABLE
2
VPORT
5
8
100
AcDbSymbolTable
0
ENDTAB
0
TABLE
2
LTYPE
5
5
100
AcDbSymbolTable
0
LTYPE
5
14
100
AcDbSymbolTableRecord
100
AcDbLinetypeTableRecord
2
BYBLOCK
70
0
0
LTYPE
5
15
100
AcDbSymbolTableRecord
100
AcDbLinetypeTableRecord
2
BYLAYER
70
0
0
ENDTAB
0
TABLE
2
LAYER
5
2
100
AcDbSymbolTable
70
2
0
LAYER
5
50
100
AcDbSymbolTableRecord
100
AcDbLayerTableRecord
2
0
70
0
6
CONTINUOUS
0
ENDTAB
0
TABLE
2
STYLE
5
3
100
AcDbSymbolTable
70
1
0
STYLE
5
11
100
AcDbSymbolTableRecord
100
AcDbTextStyleTableRecord
2
STANDARD
70
0
0
ENDTAB
0
TABLE
2
VIEW
5
6
100
AcDbSymbolTable
70
0
0
ENDTAB
0
TABLE
2
UCS
5
7
100
AcDbSymbolTable
70
0
0
ENDTAB
0
TABLE
2
APPID
5
9
100
AcDbSymbolTable
70
2
0
APPID
5
12
100
AcDbSymbolTableRecord
100
AcDbRegAppTableRecord
2
ACAD
70
0
0
ENDTAB
0
TABLE
2
DIMSTYLE
5
A
100
AcDbSymbolTable
70
1
0
ENDTAB
0
TABLE
2
BLOCK_RECORD
5
1
100
AcDbSymbolTable
70
1
0
BLOCK_RECORD
5
1F
100
AcDbSymbolTableRecord
100
AcDbBlockTableRecord
2
*MODEL_SPACE
0
BLOCK_RECORD
5
1B
100
AcDbSymbolTableRecord
100
AcDbBlockTableRecord
2
*PAPER_SPACE
0
ENDTAB
0
ENDSEC
0
SECTION
2
BLOCKS
0
BLOCK
5
20
100
AcDbEntity
100
AcDbBlockBegin
2
*MODEL_SPACE
0
ENDBLK
5
21
100
AcDbEntity
100
AcDbBlockEnd
0
BLOCK
5
1C
100
AcDbEntity
100
AcDbBlockBegin
2
*PAPER_SPACE
0
ENDBLK
5
1D
100
AcDbEntity
100
AcDbBlockEnd
0
ENDSEC
0
SECTION
2
ENTITIES
0
LINE
5
100
100
AcDbEntity
8
0
100
AcDbLine
10
-112.02500000000001
20
-42.499499999999998
30
0
11
-108.32500000000002
21
10.675600000000003
31
0
0
ARC
5
101
100
AcDbEntity
8
0
100
AcDbCircle
10
-106.69571059227192
20
10.562231697757149
30
0
40
1.6332288100840131
210
0
220
-0
230
1
100
AcDbArc
50
80.921235432209158
51
176.01969257009506
0
LINE
5
102
100
AcDbEntity
8
0
100
AcDbLine
10
-87.302499999999995
20
10.8751
30
0
11
-106.43799999999999
21
12.175000000000002
31
0
0
LINE
5
103
100
AcDbEntity
8
0
100
AcDbLine
10
-81.303299999999993
20
10.075200000000002
30
0
11
-87.302499999999995
21
10.8751
31
0
0
LINE
5
104
100
AcDbEntity
8
0
100
AcDbLine
10
-11.703600000000002
20
0.275256
30
0
11
-81.303299999999993
21
10.075200000000002
31
0
0
ARC
5
105
100
AcDbEntity
8
0
100
AcDbCircle
10
-11.878025465615474
20
-2.0934359180928661
30
0
40
2.3751053967968736
210
0
220
-0
230
1
100
AcDbArc
50
14.562227323264253
51
85.788461348901507
0
ARC
5
106
100
AcDbEntity
8
0
100
AcDbCircle
10
12.000737607773825
20
-2.1181127844486936
30
0
40
2.456609490170004
210
0
220
0
230
1
100
AcDbArc
50
96.050469982788741
51
165.34680650279799
0
LINE
5
107
100
AcDbEntity
8
0
100
AcDbLine
10
11.7418
20
0.32481199999999999
30
0
11
87.396299999999997
21
10.924700000000001
31
0
0
ARC
5
108
100
AcDbEntity
8
0
100
AcDbCircle
10
-110.0472555524961
20
-42.759411650114593
30
0
40
1.9947499004882299
210
0
220
0
230
1
100
AcDbArc
50
172.51319496243369
51
266.04037521528562
0
LINE
5
109
100
AcDbEntity
8
0
100
AcDbLine
10
-93.202600000000018
20
-45.924900000000008
30
0
11
-110.18500000000002
21
-44.749400000000001
31
0
0
LINE
5
110
100
AcDbEntity
8
0
100
AcDbLine
10
-76.307000000000016
20
-48.337400000000002
30
0
11
-93.202600000000018
21
-45.924900000000008
31
0
0
ARC
5
111
100
AcDbEntity
8
0
100
AcDbCircle
10
-76.569629730146545
20
-50.176689893746584
30
0
40
1.8579455558210387
210
-0
220
0
230
1
100
AcDbArc
50
-6.8379521694372833
51
81.873743264635806
0
LINE
5
112
100
AcDbEntity
8
0
100
AcDbLine
10
-76.8249
20
-65.397700000000015
30
0
11
-74.724900000000005
21
-50.3979
31
0
0
ARC
5
113
100
AcDbEntity
8
0
100
AcDbCircle
10
-74.676184056238185
20
-65.471258700943906
30
0
40
2.1499746718184438
210
0
220
0
230
1
100
AcDbArc
50
178.03931373943431
51
261.94086320525008
0
LINE
5
114
100
AcDbEntity
8
0
100
AcDbLine
10
-74.977599999999995
20
-67.599999999999994
30
0
11
-23.595300000000002
21
-74.875399999999999
31
0
0
ARC
5
115
100
AcDbEntity
8
0
100
AcDbCircle
10
-19.413404003899146
20
-45.340881672423095
30
0
40
29.829113747548398
210
0
220
0
230
1
100
AcDbArc
50
261.94086320524991
51
277.34992440807713
0
LINE
5
116
100
AcDbEntity
8
0
100
AcDbLine
10
-3.9965900000000003
20
-73.124799999999993
30
0
11
-15.5974
21
-74.924900000000008
31
0
0
ARC
5
117
100
AcDbEntity
8
0
100
AcDbCircle
10
0.16995072224474272
20
-99.976223407601793
30
0
40
27.172762108487042
210
0
220
-0
230
1
100
AcDbArc
50
81.888725371397314
51
98.820255655389303
0
LINE
5
118
100
AcDbEntity
8
0
100
AcDbLine
10
4.0039199999999999
20
-73.075299999999999
30
0
11
15.805
21
-74.875500000000002
31
0
0
ARC
5
119
100
AcDbEntity
8
0
100
AcDbCircle
10
19.799916933468317
20
-48.687112973439568
30
0
40
26.491337760827236
210
0
220
0
230
1
100
AcDbArc
50
261.32665868055682
51
278.67764291203702
0
LINE
5
120
100
AcDbEntity
8
0
100
AcDbLine
10
23.796800000000001
20
-74.875200000000007
30
0
11
74.978100000000012
21
-67.599900000000005
31
0
0
ARC
5
121
100
AcDbEntity
8
0
100
AcDbCircle
10
74.675424643172036
20
-65.470596982884572
30
0
40
2.150707723129262
210
-0
220
0
230
1
100
AcDbArc
50
-81.909741190990758
51
1.9397134620626706
0
LINE
5
122
100
AcDbEntity
8
0
100
AcDbLine
10
74.724999999999994
20
-50.298200000000008
30
0
11
76.8249
21
-65.397800000000004
31
0
0
ARC
5
123
100
AcDbEntity
8
0
100
AcDbCircle
10
76.580512966290669
20
-50.040153980376061
30
0
40
1.8733702560670065
210
0
220
0
230
1
100
AcDbArc
50
98.692124057291934
51
187.91733786313648
0
LINE
5
124
100
AcDbEntity
8
0
100
AcDbLine
10
93.198599999999999
20
-45.875
30
0
11
76.297399999999996
21
-48.188299999999998
31
0
0
LINE
5
125
100
AcDbEntity
8
0
100
AcDbLine
10
93.198599999999999
20
-45.875
30
0
11
110.179
21
-44.6997
31
0
0
ARC
5
126
100
AcDbEntity
8
0
100
AcDbCircle
10
110.04452963795765
20
-42.756910469136514
30
0
40
1.9474376599779906
210
-0
220
0
230
1
100
AcDbArc
50
-86.040581951067963
51
7.5688172002939114
0
LINE
5
127
100
AcDbEntity
8
0
100
AcDbLine
10
111.97499999999999
20
-42.500399999999999
30
0
11
108.27500000000001
21
10.669300000000002
31
0
0
ARC
5
128
100
AcDbEntity
8
0
100
AcDbCircle
10
106.64651348758355
20
10.555976056175965
30
0
40
1.6324247723451619
210
0
220
-0
230
1
100
AcDbArc
50
3.9807103767709147
51
97.373964180033141
0
LINE
5
129
100
AcDbEntity
8
0
100
AcDbLine
10
106.43700000000003
20
12.174899999999999
30
0
11
87.396299999999997
21
10.924700000000001
31
0
0
LWPOLYLINE
5
130
100
AcDbEntity
8
0
100
AcDbPolyline
90
8
70
1
43
0.0
10
28.708699999999997
20
-14.130799999999999
42
-0.41409639751638683
10
28.655100000000004
20
-14.201899999999998
10
14.797200000000002
20
-16.149500000000003
42
-0.41380510125589054
10
14.726100000000002
20
-16.096000000000004
10
12.764600000000003
20
-2.1389999999999971
42
-0.41384354151992675
10
12.818100000000001
20
-2.0679099999999995
10
26.676100000000002
20
-0.12030700000000238
42
-0.41429680999081936
10
26.747200000000003
20
-0.17386899999999983
0
LWPOLYLINE
5
131
100
AcDbEntity
8
0
100
AcDbPolyline
90
8
70
1
43
0.0
10
48.1355
20
-16.291099999999993
42
-0.41433015432131876
10
48.206600000000002
20
-16.344700000000003
10
50.168100000000003
20
-30.301600000000004
42
-0.414096397516305
10
50.1145
20
-30.372699999999995
10
36.256599999999999
20
-32.320300000000003
42
-0.41380510125588171
10
36.185499999999998
20
-32.266800000000003
10
34.224000000000004
20
-18.309800000000003
42
-0.41380396600719355
10
34.277500000000003
20
-18.238700000000001
0
LWPOLYLINE
5
132
100
AcDbEntity
8
0
100
AcDbPolyline
90
8
70
1
43
0.0
10
-67.021699999999996
20
-13.700400000000002
10
-68.983199999999997
20
-27.657299999999999
42
0.4140963975163312
10
-68.929599999999994
20
-27.728400000000004
10
-55.071700000000007
20
-29.676000000000002
42
0.41462327740414084
10
-55.000600000000006
20
-29.622500000000002
10
-53.039100000000005
20
-15.665500000000002
42
0.41462272423506141
10
-53.092600000000004
20
-15.594400000000002
10
-66.950599999999994
20
-13.646800000000001
42
0.41409695461530271
0
LWPOLYLINE
5
133
100
AcDbEntity
8
0
100
AcDbPolyline
90
8
70
1
43
0.0
10
29.320400000000003
20
-18.935400000000001
42
-0.41433015432127213
10
29.391500000000001
20
-18.989000000000004
10
31.353000000000005
20
-32.945899999999995
42
-0.41433017974663339
10
31.299399999999999
20
-33.017000000000003
10
17.441500000000005
20
-34.964600000000004
42
-0.41433073693759048
10
17.3704
20
-34.910999999999994
10
15.408899999999994
20
-20.954100000000007
42
-0.41380454427181956
10
15.462400000000001
20
-20.883000000000003
0
LWPOLYLINE
5
134
100
AcDbEntity
8
0
100
AcDbPolyline
90
8
70
1
43
0.0
10
95.526899999999983
20
-43.359200000000001
42
-0.4141343860704737
10
95.459699999999998
20
-43.30080000000001
10
94.476499999999987
20
-29.241
42
-0.41456755793780703
10
94.534900000000007
20
-29.173900000000003
10
108.495
20
-28.197700000000001
42
-0.41343542326690086
10
108.56200000000001
20
-28.256100000000004
10
109.54500000000003
20
-42.315900000000006
42
-0.41585453667159716
10
109.48700000000002
20
-42.38300000000001
0
LWPOLYLINE
5
135
100
AcDbEntity
8
0
100
AcDbPolyline
90
8
70
1
43
0.0
10
-17.3704
20
-34.911000000000001
42
-0.41433073693752043
10
-17.441500000000005
20
-34.964599999999997
10
-31.299399999999999
20
-33.016999999999996
42
-0.41433017974655445
10
-31.353000000000005
20
-32.945900000000002
10
-29.391500000000001
20
-18.989000000000004
42
-0.4143301543212633
10
-29.320400000000003
20
-18.935400000000001
10
-15.462400000000001
20
-20.883000000000003
42
-0.41380454427183705
10
-15.408900000000001
20
-20.954100000000004
0
LWPOLYLINE
5
136
100
AcDbEntity
8
0
100
AcDbPolyline
90
8
70
1
43
0.0
10
66.285300000000007
20
-8.9133400000000051
10
52.427400000000006
20
-10.860900000000004
42
-0.41380344364739491
10
52.356300000000005
20
-10.807400000000005
10
50.394800000000011
20
3.1495799999999994
42
-0.41388324090737855
10
50.44830000000001
20
3.2206599999999952
10
64.306299999999993
20
5.1682700000000059
42
-0.41430749063755212
10
64.377399999999994
20
5.1147100000000023
10
66.33890000000001
20
-8.8422499999999964
42
-0.41405845242587153
0
LWPOLYLINE
5
137
100
AcDbEntity
8
0
100
AcDbPolyline
90
8
70
1
43
0.0
10
55.736899999999999
20
-34.409500000000008
10
69.594899999999996
20
-32.461899999999993
42
-0.41369654027415342
10
69.665899999999993
20
-32.515500000000003
10
71.627499999999998
20
-46.4724
42
-0.41433429590453491
10
71.573899999999995
20
-46.543500000000009
10
57.716000000000001
20
-48.491100000000003
42
-0.41380510125588171
10
57.644900000000007
20
-48.437599999999996
10
55.683399999999999
20
-34.480599999999995
42
-0.4146227242350381
0
LWPOLYLINE
5
138
100
AcDbEntity
8
0
100
AcDbPolyline
90
8
70
1
43
0.0
10
-36.185499999999998
20
-32.266800000000003
10
-34.224000000000004
20
-18.309799999999999
42
0.4138039660071921
10
-34.277500000000003
20
-18.238700000000001
10
-48.1355
20
-16.2911
42
0.41433015432128661
10
-48.206600000000002
20
-16.3447
10
-50.168100000000003
20
-30.301600000000004
42
0.41409639751632543
10
-50.1145
20
-30.372699999999998
10
-36.256599999999999
20
-32.320300000000003
42
0.41380510125588171
0
LWPOLYLINE
5
139
100
AcDbEntity
8
0
100
AcDbPolyline
90
8
70
1
43
0.0
10
36.868299999999991
20
-37.12489999999999
42
-0.41380454427181362
10
36.921799999999998
20
-37.053799999999995
10
50.779800000000002
20
-35.106200000000001
42
-0.41409695461529994
10
50.85090000000001
20
-35.15979999999999
10
52.812400000000004
20
-49.116700000000009
42
-0.41433017974645209
10
52.758800000000008
20
-49.187800000000017
10
38.9009
20
-51.135400000000004
42
-0.41433073693748973
10
38.829799999999999
20
-51.081800000000008
0
LWPOLYLINE
5
140
100
AcDbEntity
8
0
100
AcDbPolyline
90
8
70
1
43
0.0
10
53.039100000000012
20
-15.665500000000003
42
-0.41462272423507901
10
53.092600000000004
20
-15.594400000000004
10
66.950599999999994
20
-13.64680000000001
42
-0.41409695461529994
10
67.021699999999996
20
-13.700400000000004
10
68.983199999999997
20
-27.657299999999996
42
-0.41409639751635158
10
68.929599999999994
20
-27.728400000000004
10
55.071700000000007
20
-29.675999999999995
42
-0.41462327740414084
10
55.000600000000006
20
-29.622500000000002
0
LWPOLYLINE
5
141
100
AcDbEntity
8
0
100
AcDbPolyline
90
8
70
1
43
0.0
10
47.523800000000016
20
-11.486499999999998
42
-0.41409639751631072
10
47.470199999999998
20
-11.557599999999999
10
33.612299999999998
20
-13.505200000000002
42
-0.41380510125587883
10
33.541200000000003
20
-13.451700000000004
10
31.579700000000006
20
0.50529000000000068
42
-0.41385943185371421
10
31.633200000000002
20
0.57637599999999622
10
45.491200000000013
20
2.5239799999999999
42
-0.41430725924911499
10
45.5623
20
2.4704200000000043
0
LWPOLYLINE
5
142
100
AcDbEntity
8
0
100
AcDbPolyline
90
8
70
1
43
0.0
10
74.498500000000007
20
-31.836300000000008
42
-0.41380396600712932
10
74.551999999999992
20
-31.7652
10
88.409999999999997
20
-29.817600000000013
42
-0.41369711852337998
10
88.481000000000009
20
-29.871200000000009
10
90.44259999999997
20
-43.828200000000017
42
-0.41370009764607341
10
90.388999999999996
20
-43.8992
10
76.531099999999995
20
-45.846799999999995
42
-0.41380510125578851
10
76.459999999999994
20
-45.793300000000002
0
LWPOLYLINE
5
143
100
AcDbEntity
8
0
100
AcDbPolyline
90
8
70
1
43
0.0
10
20.085799999999999
20
-53.779700000000005
42
-0.41433073693748407
10
20.014700000000005
20
-53.726100000000017
10
18.053199999999986
20
-39.769199999999998
42
-0.41462272423504953
10
18.1067
20
-39.69809999999999
10
31.964700000000001
20
-37.750500000000009
42
-0.41409695461526186
10
32.035800000000009
20
-37.804099999999998
10
33.997299999999989
20
-51.761000000000017
42
-0.41409639751629634
10
33.943700000000007
20
-51.83209999999999
0
LWPOLYLINE
5
144
100
AcDbEntity
8
0
100
AcDbPolyline
90
8
70
1
43
0.0
10
20.697500000000019
20
-58.584299999999999
42
-0.41380454427181673
10
20.750999999999998
20
-58.513200000000012
10
34.609000000000009
20
-56.565599999999996
42
-0.41422291793158728
10
34.68
20
-56.619100000000003
10
36.641600000000004
20
-70.576099999999997
42
-0.41409639751639249
10
36.588000000000001
20
-70.647200000000012
10
22.7301
20
-72.594799999999992
42
-0.4143307369374869
10
22.659000000000002
20
-72.541200000000003
0
LWPOLYLINE
5
145
100
AcDbEntity
8
0
100
AcDbPolyline
90
8
70
1
43
0.0
10
39.512600000000006
20
-55.940000000000005
42
-0.41462272423512003
10
39.566099999999999
20
-55.868900000000004
10
53.42410000000001
20
-53.921300000000009
42
-0.41472663081403788
10
53.495100000000008
20
-53.974900000000012
10
55.456700000000005
20
-67.931799999999996
42
-0.41409639751639249
10
55.403100000000009
20
-68.002900000000011
10
41.545200000000008
20
-69.950500000000019
42
-0.4143307369375745
10
41.4741
20
-69.896899999999988
0
LWPOLYLINE
5
146
100
AcDbEntity
8
0
100
AcDbPolyline
90
8
70
1
43
0.0
10
-33.943700000000007
20
-51.83209999999999
42
-0.41409639751630783
10
-33.997300000000003
20
-51.76100000000001
10
-32.035800000000002
20
-37.804099999999998
42
-0.41409695461530849
10
-31.964700000000001
20
-37.750500000000002
10
-18.1067
20
-39.698099999999997
42
-0.41462272423506141
10
-18.0532
20
-39.769199999999998
10
-20.014700000000005
20
-53.72610000000001
42
-0.41433073693753075
10
-20.085799999999999
20
-53.779700000000005
0
LWPOLYLINE
5
147
100
AcDbEntity
8
0
100
AcDbPolyline
90
8
70
1
43
0.0
10
73.815700000000007
20
-26.978200000000001
10
71.854200000000006
20
-13.021200000000004
42
-0.41380396600717023
10
71.907700000000006
20
-12.950100000000004
10
85.76570000000001
20
-11.002500000000005
42
-0.41369711852330388
10
85.836699999999993
20
-11.056100000000004
10
87.798300000000012
20
-25.013100000000005
42
-0.41369595394163156
10
87.744699999999995
20
-25.084099999999996
10
73.886799999999994
20
-27.031800000000004
42
-0.41433488250172534
0
LWPOLYLINE
5
148
100
AcDbEntity
8
0
100
AcDbPolyline
90
8
70
1
43
0.0
10
72.310199999999995
20
-51.330600000000004
10
74.271799999999999
20
-65.287499999999994
42
-0.41409639751639249
10
74.218199999999996
20
-65.358599999999996
10
60.360299999999995
20
-67.306200000000004
42
-0.41380510125578851
10
60.289200000000001
20
-67.252700000000019
10
58.327600000000004
20
-53.295700000000004
42
-0.41433371739488889
10
58.3812
20
-53.224599999999995
10
72.239100000000008
20
-51.277000000000008
42
-0.4143307369374869
0
LWPOLYLINE
5
149
100
AcDbEntity
8
0
100
AcDbPolyline
90
8
70
1
43
0.0
10
-50.85090000000001
20
-35.159799999999997
42
-0.41409695461534651
10
-50.779800000000002
20
-35.106200000000001
10
-36.921799999999998
20
-37.053800000000003
42
-0.41380454427186919
10
-36.868299999999998
20
-37.124899999999997
10
-38.829800000000006
20
-51.081800000000008
42
-0.41433073693748973
10
-38.9009
20
-51.135400000000004
10
-52.758800000000008
20
-49.187800000000017
42
-0.41433017974644631
10
-52.812400000000004
20
-49.116700000000009
0
LWPOLYLINE
5
150
100
AcDbEntity
8
0
100
AcDbPolyline
90
8
70
1
43
0.0
10
108.16200000000002
20
-23.429300000000008
10
94.201499999999996
20
-24.405499999999996
42
-0.41413321817032644
10
94.134299999999996
20
-24.347100000000008
10
93.151099999999985
20
-10.287300000000004
42
-0.41386073927211431
10
93.20950000000002
20
-10.220200000000004
10
107.17
20
-9.243969999999992
42
-0.41348491004780458
10
107.23700000000001
20
-9.3023599999999984
10
108.22000000000003
20
-23.362099999999998
42
-0.41628781359254413
0
LWPOLYLINE
5
151
100
AcDbEntity
8
0
100
AcDbPolyline
90
8
70
1
43
0.0
10
-20.750999999999998
20
-58.513199999999998
42
-0.41380454427182251
10
-20.697500000000005
20
-58.584299999999999
10
-22.659000000000002
20
-72.541200000000003
42
-0.41433073693752787
10
-22.7301
20
-72.594800000000006
10
-36.588000000000001
20
-70.647199999999998
42
-0.41409639751638683
10
-36.641599999999997
20
-70.576099999999997
10
-34.679999999999993
20
-56.619100000000003
42
-0.41422291793154054
10
-34.609000000000009
20
-56.565600000000003
0
LWPOLYLINE
5
152
100
AcDbEntity
8
0
100
AcDbPolyline
90
8
70
1
43
0.0
10
-39.566099999999999
20
-55.868900000000011
42
-0.41462272423504376
10
-39.512599999999999
20
-55.940000000000005
10
-41.474100000000007
20
-69.896900000000002
42
-0.41433073693753364
10
-41.545200000000008
20
-69.950500000000005
10
-55.403100000000009
20
-68.002899999999997
42
-0.41409639751639249
10
-55.456700000000005
20
-67.931799999999996
10
-53.495099999999994
20
-53.974900000000005
42
-0.41472663081399114
10
-53.42410000000001
20
-53.921300000000009
0
LWPOLYLINE
5
153
100
AcDbEntity
8
0
100
AcDbPolyline
90
8
70
1
43
0.0
10
-57.644900000000014
20
-48.437600000000003
42
-0.41380510125588171
10
-57.716000000000001
20
-48.491100000000003
10
-71.573900000000009
20
-46.543500000000009
42
-0.41433429590452919
10
-71.627499999999998
20
-46.4724
10
-69.665899999999993
20
-32.51550000000001
42
-0.41369654027415065
10
-69.594899999999996
20
-32.4619
10
-55.736899999999999
20
-34.409500000000001
42
-0.41462272423506141
10
-55.683399999999999
20
-34.480600000000003
0
LWPOLYLINE
5
154
100
AcDbEntity
8
0
100
AcDbPolyline
90
8
70
1
43
0.0
10
-74.551999999999992
20
-31.765200000000004
42
-0.41380396600709135
10
-74.498500000000007
20
-31.836300000000005
10
-76.459999999999994
20
-45.793300000000002
42
-0.41380510125583508
10
-76.531099999999995
20
-45.846800000000002
10
-90.388999999999996
20
-43.899200000000008
42
-0.41370009764603832
10
-90.442599999999999
20
-43.82820000000001
10
-88.481000000000009
20
-29.871200000000005
42
-0.41369711852336233
10
-88.409999999999997
20
-29.817599999999999
0
LWPOLYLINE
5
155
100
AcDbEntity
8
0
100
AcDbPolyline
90
8
70
1
43
0.0
10
71.242500000000007
20
-8.2166600000000027
42
-0.41422606554408031
10
71.171400000000006
20
-8.1630800000000026
10
69.209900000000005
20
5.7938699999999956
42
-0.41454310897003144
10
69.263400000000004
20
5.8649500000000021
10
83.121399999999994
20
7.8125599999999995
42
-0.41430749063767497
10
83.192499999999995
20
7.7590000000000003
10
85.153999999999996
20
-6.1979600000000001
42
-0.4140563800446615
10
85.100400000000008
20
-6.2690499999999982
0
LWPOLYLINE
5
156
100
AcDbEntity
8
0
100
AcDbPolyline
90
8
70
1
43
0.0
10
92.876099999999994
20
-5.4517900000000132
42
-0.41408447197666326
10
92.808899999999994
20
-5.3934000000000015
10
91.825800000000001
20
8.6663900000000016
42
-0.41420636646346587
10
91.884200000000007
20
8.7335700000000038
10
105.84400000000001
20
9.709750000000021
42
-0.41339392761615246
10
105.911
20
9.6513500000000008
10
106.89500000000001
20
-4.408430000000001
42
-0.41722507898690164
10
106.836
20
-4.4756100000000032
0
LWPOLYLINE
5
157
100
AcDbEntity
8
0
100
AcDbPolyline
90
8
70
1
43
0.0
10
-58.3812
20
-53.224600000000002
42
-0.41433371739488317
10
-58.327600000000004
20
-53.295700000000004
10
-60.289200000000001
20
-67.252700000000004
42
-0.41380510125583508
10
-60.360300000000002
20
-67.306200000000004
10
-74.218199999999996
20
-65.358599999999981
42
-0.41409639751635158
10
-74.271799999999999
20
-65.287499999999994
10
-72.310199999999995
20
-51.330600000000004
42
-0.4143307369374869
10
-72.239100000000008
20
-51.277000000000008
0
LWPOLYLINE
5
158
100
AcDbEntity
8
0
100
AcDbPolyline
90
8
70
1
43
0.0
10
-14.726100000000002
20
-16.096
42
-0.41380510125587883
10
-14.797200000000002
20
-16.1495
10
-28.655100000000004
20
-14.2019
42
-0.41409639751636912
10
-28.7087
20
-14.130800000000001
10
-26.747200000000007
20
-0.17386899999999966
42
-0.41429680999082324
10
-26.676100000000002
20
-0.12030700000000005
10
-12.818100000000001
20
-2.0679099999999999
42
-0.41384354151992708
10
-12.764600000000002
20
-2.1389999999999998
0
LWPOLYLINE
5
159
100
AcDbEntity
8
0
100
AcDbPolyline
90
8
70
1
43
0.0
10
-66.285300000000007
20
-8.9133400000000016
10
-52.427400000000006
20
-10.860900000000003
42
0.41380344364741684
10
-52.356300000000005
20
-10.807400000000001
10
-50.394800000000004
20
3.1495800000000003
42
0.41388324090738249
10
-50.44830000000001
20
3.2206599999999996
10
-64.306299999999993
20
5.1682700000000006
42
0.4143074906375806
10
-64.377399999999994
20
5.1147100000000005
10
-66.338899999999995
20
-8.8422499999999999
42
0.41405845242587169
0
LWPOLYLINE
5
160
100
AcDbEntity
8
0
100
AcDbPolyline
90
8
70
1
43
0.0
10
-94.534900000000007
20
-29.17390000000001
42
-0.41456755793780703
10
-94.476500000000016
20
-29.241
10
-95.459699999999998
20
-43.30080000000001
42
-0.41413438607052061
10
-95.526899999999998
20
-43.359200000000008
10
-109.48700000000002
20
-42.38300000000001
42
-0.41585453667167727
10
-109.54500000000002
20
-42.315899999999999
10
-108.56200000000001
20
-28.256100000000004
42
-0.41343542326692284
10
-108.495
20
-28.197700000000001
0
LWPOLYLINE
5
161
100
AcDbEntity
8
0
100
AcDbPolyline
90
8
70
1
43
0.0
10
-71.907700000000006
20
-12.950100000000003
42
-0.41380396600717023
10
-71.854200000000006
20
-13.021200000000002
10
-73.815700000000007
20
-26.978200000000001
42
-0.41433488250169914
10
-73.886799999999994
20
-27.0318
10
-87.744699999999995
20
-25.084099999999999
42
-0.41369595394161679
10
-87.798300000000012
20
-25.013100000000001
10
-85.836699999999993
20
-11.056100000000002
42
-0.41369711852329366
10
-85.76570000000001
20
-11.0025
0
LWPOLYLINE
5
162
100
AcDbEntity
8
0
100
AcDbPolyline
90
8
70
1
43
0.0
10
-31.633200000000002
20
0.57637600000000011
10
-45.491200000000006
20
2.5239799999999999
42
0.41430725924913908
10
-45.5623
20
2.4704199999999998
10
-47.523800000000008
20
-11.486499999999999
42
0.41409639751632094
10
-47.470199999999998
20
-11.557600000000001
10
-33.612299999999998
20
-13.505200000000002
42
0.4138051012559022
10
-33.541200000000003
20
-13.451700000000002
10
-31.579700000000003
20
0.50529000000000002
42
0.41385943185372276
0
LWPOLYLINE
5
163
100
AcDbEntity
8
0
100
AcDbPolyline
90
8
70
1
43
0.0
10
-93.20950000000002
20
-10.220200000000014
42
-0.41386073927210471
10
-93.151100000000014
20
-10.287300000000002
10
-94.134299999999996
20
-24.347100000000005
42
-0.41413321817034704
10
-94.201499999999996
20
-24.4055
10
-108.16200000000002
20
-23.429299999999987
42
-0.41628781359254258
10
-108.22000000000001
20
-23.362100000000005
10
-107.23699999999999
20
-9.3023600000000002
42
-0.41348491004782045
10
-107.17
20
-9.2439699999999991
0
LWPOLYLINE
5
164
100
AcDbEntity
8
0
100
AcDbPolyline
90
8
70
1
43
0.0
10
-92.808900000000008
20
-5.3933999999999997
42
-0.4140844719766853
10
-92.876099999999994
20
-5.4517899999999999
10
-106.836
20
-4.4756100000000067
42
-0.41722507898689598
10
-106.89500000000001
20
-4.408430000000001
10
-105.91099999999999
20
9.651349999999999
42
-0.4133939276161418
10
-105.84400000000001
20
9.7097499999999997
10
-91.884200000000007
20
8.7335700000000038
42
-0.4142063664634652
10
-91.825800000000001
20
8.6663899999999998
0
LWPOLYLINE
5
165
100
AcDbEntity
8
0
100
AcDbPolyline
90
8
70
1
43
0.0
10
-85.100400000000008
20
-6.26905
10
-71.242500000000007
20
-8.216660000000001
42
0.41422606554410513
10
-71.171400000000006
20
-8.1630800000000008
10
-69.209900000000005
20
5.7938700000000001
42
0.4145431089700285
10
-69.263400000000004
20
5.8649500000000012
10
-83.121399999999994
20
7.8125600000000004
42
0.41430749063765676
10
-83.192499999999995
20
7.7590000000000003
10
-85.153999999999996
20
-6.1979600000000001
42
0.41405638004467177
0
ARC
5
166
100
AcDbEntity
8
0
100
AcDbCircle
10
-10.000000000000007
20
-54.724989594335291
30
0
40
2.0000000000000107
210
0
220
-0
230
1
100
AcDbArc
50
0
51
89.999999999999801
0
LINE
5
167
100
AcDbEntity
8
0
100
AcDbLine
10
-7.9999999999999964
20
-54.724989594335284
30
0
11
-7.9999999999999964
21
-63.724989594335284
31
0
0
LINE
5
168
100
AcDbEntity
8
0
100
AcDbLine
10
-6.9999999999999973
20
-64.724989594335284
30
0
11
7.0000000000000018
21
-64.724989594335284
31
0
0
ARC
5
169
100
AcDbEntity
8
0
100
AcDbCircle
10
-6.9999999999999964
20
-63.724989594335284
30
0
40
0.99999999999999978
210
0
220
0
230
1
100
AcDbArc
50
180
51
269.99999999999994
0
ARC
5
170
100
AcDbEntity
8
0
100
AcDbCircle
10
7.0000000000000053
20
-63.724989594335284
30
0
40
0.99999999999999645
210
0
220
0
230
1
100
AcDbArc
50
-90.000000000000199
51
0
0
LINE
5
171
100
AcDbEntity
8
0
100
AcDbLine
10
8.0000000000000018
20
-63.724989594335284
30
0
11
8
21
-54.724989594335284
31
0
0
ARC
5
172
100
AcDbEntity
8
0
100
AcDbCircle
10
10.000000000000007
20
-54.724989594335291
30
0
40
2.0000000000000018
210
0
220
0
230
1
100
AcDbArc
50
90.000000000000199
51
180
0
LINE
5
173
100
AcDbEntity
8
0
100
AcDbLine
10
-10
20
-16.724989594335284
30
0
11
-6.9161198144623937
21
-16.72498959433528
31
0
0
LINE
5
174
100
AcDbEntity
8
0
100
AcDbLine
10
9.6240299999999994
20
-1.4966699999999999
30
0
11
5.9698650603664181
21
-15.47202192204737
31
0
0
LINE
5
175
100
AcDbEntity
8
0
100
AcDbLine
10
-9.5792199999999994
20
-1.4962600000000008
30
0
11
-5.9482446756514182
21
-15.473558260425538
31
0
0
ARC
5
176
100
AcDbEntity
8
0
100
AcDbCircle
10
-6.9161198144623937
20
-15.72498959433528
30
0
40
0.99999999999999867
210
-0
220
0
230
1
100
AcDbArc
50
-90
51
14.562227323264304
0
LINE
5
177
100
AcDbEntity
8
0
100
AcDbLine
10
10
20
-16.72498959433528
30
0
11
6.9373397922210742
21
-16.72498959433528
31
0
0
ARC
5
178
100
AcDbEntity
8
0
100
AcDbCircle
10
6.9373397922210769
20
-15.724989594335277
30
0
40
1.0000000000000027
210
0
220
0
230
1
100
AcDbArc
50
165.34680650279819
51
269.99999999999983
0
CIRCLE
5
179
100
AcDbEntity
8
0
100
AcDbCircle
10
-91.226034921245187
20
-27.092339739007485
30
0
40
2.1999999999999957
210
0
220
-0
230
1
0
CIRCLE
5
180
100
AcDbEntity
8
0
100
AcDbCircle
10
-55.511387154627919
20
-51.183606189146751
30
0
40
2.1999999999999957
210
0
220
-0
230
1
0
CIRCLE
5
181
100
AcDbEntity
8
0
100
AcDbCircle
10
-13.886131381905503
20
-69.791379440821174
30
0
40
2.1999999999999957
210
0
220
-0
230
1
0
CIRCLE
5
182
100
AcDbEntity
8
0
100
AcDbCircle
10
14.069555165496324
20
-69.774704551403758
30
0
40
2.1999999999999957
210
0
220
-0
230
1
0
CIRCLE
5
183
100
AcDbEntity
8
0
100
AcDbCircle
10
-31.382632730969895
20
-16.188169205921909
30
0
40
2.1999999999999957
210
0
220
-0
230
1
0
CIRCLE
5
184
100
AcDbEntity
8
0
100
AcDbCircle
10
-87.899520144639794
20
4.408653551907614
30
0
40
2.1999999999999957
210
0
220
-0
230
1
0
CIRCLE
5
185
100
AcDbEntity
8
0
100
AcDbCircle
10
55.511387154627919
20
-51.183606189146751
30
0
40
2.1999999999999957
210
0
220
-0
230
1
0
CIRCLE
5
186
100
AcDbEntity
8
0
100
AcDbCircle
10
31.523477661478342
20
-16.203818642645064
30
0
40
2.1999999999999957
210
0
220
-0
230
1
0
CIRCLE
5
187
100
AcDbEntity
8
0
100
AcDbCircle
10
91.226034921245187
20
-27.092339739007485
30
0
40
2.1999999999999957
210
0
220
-0
230
1
0
CIRCLE
5
188
100
AcDbEntity
8
0
100
AcDbCircle
10
88.009344910126373
20
4.4086535519076131
30
0
40
2.1999999999999957
210
0
220
-0
230
1
0
LINE
5
189
100
AcDbEntity
8
0
100
AcDbLine
10
-12.443710129636942
20
-41.87167254773442
30
0
11
-10
21
-41.87167254773442
31
0
0
LINE
5
190
100
AcDbEntity
8
0
100
AcDbLine
10
-12.443710129636942
20
-46.270809325909106
30
0
11
-10
21
-46.270809325909106
31
0
0
LINE
5
191
100
AcDbEntity
8
0
100
AcDbLine
10
12.418887648538185
20
-41.830306066791238
30
0
11
10
21
-41.830306066791238
31
0
0
LINE
5
192
100
AcDbEntity
8
0
100
AcDbLine
10
12.418887648538185
20
-46.230146196121922
30
0
11
10
21
-46.230146196121922
31
0
0
LINE
5
193
100
AcDbEntity
8
0
100
AcDbLine
10
-10
20
-52.724989594335277
30
0
11
-10
21
-46.270809325909106
31
0
0
LINE
5
194
100
AcDbEntity
8
0
100
AcDbLine
10
10
20
-46.230146196121922
30
0
11
10
21
-52.724989594335284
31
0
0
LINE
5
195
100
AcDbEntity
8
0
100
AcDbLine
10
-10
20
-16.724989594335284
30
0
11
-10
21
-41.87167254773442
31
0
0
LINE
5
196
100
AcDbEntity
8
0
100
AcDbLine
10
10
20
-41.830306066791238
30
0
11
10
21
-16.72498959433528
31
0
0
ARC
5
197
100
AcDbEntity
8
0
100
AcDbCircle
10
-12.443710129636942
20
-44.071240936821766
30
0
40
2.199568389087343
210
0
220
-0
230
1
100
AcDbArc
50
90
51
270
0
ARC
5
198
100
AcDbEntity
8
0
100
AcDbCircle
10
12.418887648538185
20
-44.03022613145658
30
0
40
2.1999200646653438
210
0
220
0
230
1
100
AcDbArc
50
-90
51
90
0
ENDSEC
0
SECTION
2
OBJECTS
0
DICTIONARY
5
C
100
AcDbDictionary
3
ACAD_GROUP
350
D
3
ACAD_MLINESTYLE
350
17
0
DICTIONARY
5
D
100
AcDbDictionary
0
DICTIONARY
5
1A
330
C
100
AcDbDictionary
0
DICTIONARY
5
17
100
AcDbDictionary
0
ENDSEC
0
EOF
