0
SECTION
2
HEADER
9
$INSUNITS
70
4
9
$ACADVER
1
AC1014
9
$HANDSEED
5
FFFF
0
ENDSEC
0
SECTION
2
TABLES
0
TABLE
2
VPORT
5
8
100
AcDbSymbolTable
0
ENDTAB
0
TABLE
2
LTYPE
5
5
100
AcDbSymbolTable
0
LTYPE
5
14
100
AcDbSymbolTableRecord
100
AcDbLinetypeTableRecord
2
BYBLOCK
70
0
0
LTYPE
5
15
100
AcDbSymbolTableRecord
100
AcDbLinetypeTableRecord
2
BYLAYER
70
0
0
ENDTAB
0
TABLE
2
LAYER
5
2
100
AcDbSymbolTable
70
2
0
LAYER
5
50
100
AcDbSymbolTableRecord
100
AcDbLayerTableRecord
2
0
70
0
6
CONTINUOUS
0
ENDTAB
0
TABLE
2
STYLE
5
3
100
AcDbSymbolTable
70
1
0
STYLE
5
11
100
AcDbSymbolTableRecord
100
AcDbTextStyleTableRecord
2
STANDARD
70
0
0
ENDTAB
0
TABLE
2
VIEW
5
6
100
AcDbSymbolTable
70
0
0
ENDTAB
0
TABLE
2
UCS
5
7
100
AcDbSymbolTable
70
0
0
ENDTAB
0
TABLE
2
APPID
5
9
100
AcDbSymbolTable
70
2
0
APPID
5
12
100
AcDbSymbolTableRecord
100
AcDbRegAppTableRecord
2
ACAD
70
0
0
ENDTAB
0
TABLE
2
DIMSTYLE
5
A
100
AcDbSymbolTable
70
1
0
ENDTAB
0
TABLE
2
BLOCK_RECORD
5
1
100
AcDbSymbolTable
70
1
0
BLOCK_RECORD
5
1F
100
AcDbSymbolTableRecord
100
AcDbBlockTableRecord
2
*MODEL_SPACE
0
BLOCK_RECORD
5
1B
100
AcDbSymbolTableRecord
100
AcDbBlockTableRecord
2
*PAPER_SPACE
0
ENDTAB
0
ENDSEC
0
SECTION
2
BLOCKS
0
BLOCK
5
20
100
AcDbEntity
100
AcDbBlockBegin
2
*MODEL_SPACE
0
ENDBLK
5
21
100
AcDbEntity
100
AcDbBlockEnd
0
BLOCK
5
1C
100
AcDbEntity
100
AcDbBlockBegin
2
*PAPER_SPACE
0
ENDBLK
5
1D
100
AcDbEntity
100
AcDbBlockEnd
0
ENDSEC
0
SECTION
2
ENTITIES
0
ARC
5
100
100
AcDbEntity
8
0
100
AcDbCircle
10
-106.69571059227192
20
10.562231697757149
30
0
40
1.6332288100840131
210
0
220
-0
230
1
100
AcDbArc
50
80.921235432209158
51
176.01969257009506
0
LINE
5
101
100
AcDbEntity
8
0
100
AcDbLine
10
-87.302499999999995
20
10.8751
30
0
11
-106.43799999999999
21
12.175000000000002
31
0
0
LINE
5
102
100
AcDbEntity
8
0
100
AcDbLine
10
-112.02500000000001
20
-42.499499999999998
30
0
11
-108.32500000000002
21
10.675600000000003
31
0
0
LINE
5
103
100
AcDbEntity
8
0
100
AcDbLine
10
-81.303299999999993
20
10.075200000000002
30
0
11
-87.302499999999995
21
10.8751
31
0
0
LINE
5
104
100
AcDbEntity
8
0
100
AcDbLine
10
-11.703600000000002
20
0.275256
30
0
11
-81.303299999999993
21
10.075200000000002
31
0
0
ARC
5
105
100
AcDbEntity
8
0
100
AcDbCircle
10
-11.878025465615474
20
-2.0934359180928661
30
0
40
2.3751053967968736
210
0
220
-0
230
1
100
AcDbArc
50
14.562227323264253
51
85.788461348901507
0
LINE
5
106
100
AcDbEntity
8
0
100
AcDbLine
10
-5.5061200000000001
20
-17.1755
30
0
11
-9.5792199999999994
21
-1.4962600000000004
31
0
0
ARC
5
107
100
AcDbEntity
8
0
100
AcDbCircle
10
-3.2971881983769697
20
-16.601671158730223
30
0
40
2.2822487251162138
210
0
220
0
230
1
100
AcDbArc
50
194.56222732326421
51
264.93269210273053
0
LINE
5
108
100
AcDbEntity
8
0
100
AcDbLine
10
-3.4987699999999999
20
-18.875
30
0
11
3.5179200000000002
21
-18.875
31
0
0
ARC
5
109
100
AcDbEntity
8
0
100
AcDbCircle
10
3.5179200000000002
20
-16.840810642070878
30
0
40
2.0341893579291259
210
0
220
0
230
1
100
AcDbArc
50
270
51
350.50995877473554
0
LINE
5
110
100
AcDbEntity
8
0
100
AcDbLine
10
9.6240299999999994
20
-1.4966700000000002
30
0
11
5.5242699999999996
21
-17.176200000000001
31
0
0
ARC
5
111
100
AcDbEntity
8
0
100
AcDbCircle
10
12.000737607773825
20
-2.1181127844486936
30
0
40
2.456609490170004
210
0
220
0
230
1
100
AcDbArc
50
96.050469982788741
51
165.34680650279799
0
LINE
5
112
100
AcDbEntity
8
0
100
AcDbLine
10
11.7418
20
0.32481199999999999
30
0
11
87.396299999999997
21
10.924700000000001
31
0
0
ARC
5
113
100
AcDbEntity
8
0
100
AcDbCircle
10
-110.0472555524961
20
-42.759411650114593
30
0
40
1.9947499004882299
210
0
220
0
230
1
100
AcDbArc
50
172.51319496243369
51
266.04037521528562
0
LINE
5
114
100
AcDbEntity
8
0
100
AcDbLine
10
-93.202600000000018
20
-45.924900000000008
30
0
11
-110.18500000000002
21
-44.749400000000001
31
0
0
LINE
5
115
100
AcDbEntity
8
0
100
AcDbLine
10
-76.307000000000016
20
-48.337400000000002
30
0
11
-93.202600000000018
21
-45.924900000000008
31
0
0
ARC
5
116
100
AcDbEntity
8
0
100
AcDbCircle
10
-76.569629730146545
20
-50.176689893746584
30
0
40
1.8579455558210387
210
-0
220
0
230
1
100
AcDbArc
50
-6.8379521694372833
51
81.873743264635806
0
LINE
5
117
100
AcDbEntity
8
0
100
AcDbLine
10
-76.8249
20
-65.397700000000015
30
0
11
-74.724900000000005
21
-50.3979
31
0
0
ARC
5
118
100
AcDbEntity
8
0
100
AcDbCircle
10
-74.676184056238185
20
-65.471258700943906
30
0
40
2.1499746718184438
210
0
220
0
230
1
100
AcDbArc
50
178.03931373943431
51
261.94086320525008
0
LINE
5
119
100
AcDbEntity
8
0
100
AcDbLine
10
-74.977599999999995
20
-67.599999999999994
30
0
11
-23.595300000000002
21
-74.875399999999999
31
0
0
ARC
5
120
100
AcDbEntity
8
0
100
AcDbCircle
10
-19.413404003899146
20
-45.340881672423095
30
0
40
29.829113747548398
210
0
220
0
230
1
100
AcDbArc
50
261.94086320524991
51
277.34992440807713
0
LINE
5
121
100
AcDbEntity
8
0
100
AcDbLine
10
-3.9965900000000003
20
-73.124799999999993
30
0
11
-15.5974
21
-74.924900000000008
31
0
0
ARC
5
122
100
AcDbEntity
8
0
100
AcDbCircle
10
0.16995072224474272
20
-99.976223407601793
30
0
40
27.172762108487042
210
0
220
-0
230
1
100
AcDbArc
50
81.888725371397314
51
98.820255655389303
0
LINE
5
123
100
AcDbEntity
8
0
100
AcDbLine
10
4.0039199999999999
20
-73.075299999999999
30
0
11
15.805
21
-74.875500000000002
31
0
0
ARC
5
124
100
AcDbEntity
8
0
100
AcDbCircle
10
19.799916933468317
20
-48.687112973439568
30
0
40
26.491337760827236
210
0
220
0
230
1
100
AcDbArc
50
261.32665868055682
51
278.67764291203702
0
LINE
5
125
100
AcDbEntity
8
0
100
AcDbLine
10
23.796800000000001
20
-74.875200000000007
30
0
11
74.978100000000012
21
-67.599900000000005
31
0
0
ARC
5
126
100
AcDbEntity
8
0
100
AcDbCircle
10
74.675424643172036
20
-65.470596982884572
30
0
40
2.150707723129262
210
-0
220
0
230
1
100
AcDbArc
50
-81.909741190990758
51
1.9397134620626706
0
LINE
5
127
100
AcDbEntity
8
0
100
AcDbLine
10
74.724999999999994
20
-50.298200000000008
30
0
11
76.8249
21
-65.397800000000004
31
0
0
ARC
5
128
100
AcDbEntity
8
0
100
AcDbCircle
10
76.580512966290669
20
-50.040153980376061
30
0
40
1.8733702560670065
210
0
220
0
230
1
100
AcDbArc
50
98.692124057291934
51
187.91733786313648
0
LINE
5
129
100
AcDbEntity
8
0
100
AcDbLine
10
93.198599999999999
20
-45.875
30
0
11
76.297399999999996
21
-48.188299999999998
31
0
0
LINE
5
130
100
AcDbEntity
8
0
100
AcDbLine
10
93.198599999999999
20
-45.875
30
0
11
110.179
21
-44.6997
31
0
0
ARC
5
131
100
AcDbEntity
8
0
100
AcDbCircle
10
110.04452963795765
20
-42.756910469136514
30
0
40
1.9474376599779906
210
-0
220
0
230
1
100
AcDbArc
50
-86.040581951067963
51
7.5688172002939114
0
LINE
5
132
100
AcDbEntity
8
0
100
AcDbLine
10
111.97499999999999
20
-42.500399999999999
30
0
11
108.27500000000001
21
10.669300000000002
31
0
0
ARC
5
133
100
AcDbEntity
8
0
100
AcDbCircle
10
106.64651348758355
20
10.555976056175965
30
0
40
1.6324247723451619
210
0
220
-0
230
1
100
AcDbArc
50
3.9807103767709147
51
97.373964180033141
0
LINE
5
134
100
AcDbEntity
8
0
100
AcDbLine
10
106.43700000000003
20
12.174899999999999
30
0
11
87.396299999999997
21
10.924700000000001
31
0
0
CIRCLE
5
135
100
AcDbEntity
8
0
100
AcDbCircle
10
-45.647914910886144
20
-21.23580938604232
30
0
40
1.3499999999999999
210
-0
220
0
230
1
0
CIRCLE
5
136
100
AcDbEntity
8
0
100
AcDbCircle
10
-57.784105898557534
20
-16.937128335964861
30
0
40
1.3499999999999999
210
-0
220
0
230
1
0
CIRCLE
5
137
100
AcDbEntity
8
0
100
AcDbCircle
10
-55.107973359560994
20
1.8970397376764969
30
0
40
1.3499999999999999
210
-0
220
0
230
1
0
CIRCLE
5
138
100
AcDbEntity
8
0
100
AcDbCircle
10
-42.97178237188956
20
-2.4016413124009768
30
0
40
1.3499999999999999
210
-0
220
0
230
1
0
LWPOLYLINE
5
139
100
AcDbEntity
8
0
100
AcDbPolyline
90
4
70
1
43
0.0
10
-41.033724438076788
20
-27.989694379064662
10
-44.418786510992675
20
-27.513985582734257
42
1.0001637462993618
10
-44.752387169000571
20
-29.890654222548516
10
-41.367724121704811
20
-30.366335116289424
42
1.0000025301198874
0
CIRCLE
5
140
100
AcDbEntity
8
0
100
AcDbCircle
10
-53.299645058279012
20
-3.5089736865334786
30
0
40
0.87499999999999811
210
-0
220
0
230
1
0
CIRCLE
5
141
100
AcDbEntity
8
0
100
AcDbCircle
10
-36.341127450338092
20
-0.76017388619217918
30
0
40
1.3499999999999999
210
-0
220
0
230
1
0
LWPOLYLINE
5
142
100
AcDbEntity
8
0
100
AcDbPolyline
90
4
70
1
43
0.0
10
-38.35759189912762
20
-9.155526305416684
42
-1.0000025301418274
10
-38.69159158270822
20
-11.532167042648112
10
-42.07625463000403
20
-11.056486148907201
42
-1.0001637462993618
10
-41.742653971996091
20
-8.6798175090929348
0
CIRCLE
5
143
100
AcDbEntity
8
0
100
AcDbCircle
10
-34.53279914905611
20
-6.1661873104021296
30
0
40
0.87499999999999811
210
-0
220
0
230
1
0
CIRCLE
5
144
100
AcDbEntity
8
0
100
AcDbCircle
10
-24.130070299628454
20
-5.0372405563966041
30
0
40
1.3499999999999999
210
-0
220
0
230
1
0
CIRCLE
5
145
100
AcDbEntity
8
0
100
AcDbCircle
10
-25.754432276778964
20
-7.3662974704326976
30
0
40
0.875
210
-0
220
0
230
1
0
LWPOLYLINE
5
146
100
AcDbEntity
8
0
100
AcDbPolyline
90
4
70
1
43
0.0
10
-23.234542557742913
20
-13.692085392902818
42
-1.0001637462993618
10
-22.900941899734985
20
-11.315416753088554
10
-19.51587982681437
20
-11.791125549419633
42
-1.0000025301198874
10
-19.849879510447114
20
-14.167766286643726
0
CIRCLE
5
147
100
AcDbEntity
8
0
100
AcDbCircle
10
-37.208931688052722
20
-25.000355384043459
30
0
40
0.87499999999999811
210
-0
220
0
230
1
0
CIRCLE
5
148
100
AcDbEntity
8
0
100
AcDbCircle
10
-28.430564815775607
20
-26.200465544074021
30
0
40
0.875
210
-0
220
0
230
1
0
CIRCLE
5
149
100
AcDbEntity
8
0
100
AcDbCircle
10
-26.806202838625097
20
-23.871408630037937
30
0
40
1.3499999999999999
210
-0
220
0
230
1
0
CIRCLE
5
150
100
AcDbEntity
8
0
100
AcDbCircle
10
-39.01725998933469
20
-19.594341959833528
30
0
40
1.3499999999999999
210
-0
220
0
230
1
0
CIRCLE
5
151
100
AcDbEntity
8
0
100
AcDbCircle
10
-104.42801605345446
20
2.5470400000000004
30
0
40
0.87500000000000011
210
0
220
0
230
1
0
LWPOLYLINE
5
152
100
AcDbEntity
8
0
100
AcDbPolyline
90
4
70
1
43
0.0
10
-101.47299999999962
20
-3.5875600000000278
42
-1.0001637462995314
10
-101.30600000000001
20
-1.1934100000000001
10
-97.895999999995226
20
-1.4318300000003314
42
-1.0000025301198874
10
-98.063400000000001
20
-3.8259800000000004
0
CIRCLE
5
153
100
AcDbEntity
8
0
100
AcDbCircle
10
-83.248674359622925
20
-15.930076670679533
30
0
40
1.3499999999999999
210
-0
220
0
230
1
0
CIRCLE
5
154
100
AcDbEntity
8
0
100
AcDbCircle
10
-39.557397259364613
20
-5.4647929672917517
30
0
40
1.9999999999999998
210
-0
220
0
230
1
0
CIRCLE
5
155
100
AcDbEntity
8
0
100
AcDbCircle
10
-42.233529798361211
20
-24.298961040933087
30
0
40
1.9999999999999998
210
-0
220
0
230
1
0
LWPOLYLINE
5
156
100
AcDbEntity
8
0
100
AcDbPolyline
90
4
70
1
43
0.0
10
8.7200000000000006
20
-48.924000000000007
10
8.7200000000000006
20
-20.875999999999998
42
0.99999999999999989
10
6.5200000000000005
20
-20.875999999999998
10
6.5200000000000005
20
-48.924000000000007
42
0.99999999999999989
0
CIRCLE
5
157
100
AcDbEntity
8
0
100
AcDbCircle
10
-17.499415378076986
20
-3.3957731301878082
30
0
40
1.3499999999999999
210
-0
220
0
230
1
0
CIRCLE
5
158
100
AcDbEntity
8
0
100
AcDbCircle
10
-20.175547917073651
20
-22.229941203829146
30
0
40
1.3499999999999999
210
-0
220
0
230
1
0
CIRCLE
5
159
100
AcDbEntity
8
0
100
AcDbCircle
10
-15.691087076795011
20
-8.8017865543977507
30
0
40
0.87499999999999811
210
-0
220
0
230
1
0
CIRCLE
5
160
100
AcDbEntity
8
0
100
AcDbCircle
10
-23.391817726100157
20
-26.934560284928697
30
0
40
1.9999999999999998
210
-0
220
0
230
1
0
LWPOLYLINE
5
161
100
AcDbEntity
8
0
100
AcDbPolyline
90
4
70
1
43
0.0
10
-6.5199999999999996
20
-20.875999999999998
42
0.99999999999999989
10
-8.7200000000000006
20
-20.875999999999998
10
-8.7200000000000006
20
-48.924000000000007
42
0.99999999999999989
10
-6.5200000000000005
20
-48.924000000000007
0
CIRCLE
5
162
100
AcDbEntity
8
0
100
AcDbCircle
10
-20.715685187103507
20
-8.1003922112873745
30
0
40
1.9999999999999998
210
-0
220
0
230
1
0
CIRCLE
5
163
100
AcDbEntity
8
0
100
AcDbCircle
10
-61.00037570758407
20
-21.641747417064437
30
0
40
1.9999999999999998
210
-0
220
0
230
1
0
CIRCLE
5
164
100
AcDbEntity
8
0
100
AcDbCircle
10
-58.324243168587543
20
-2.8075793434230971
30
0
40
1.9999999999999998
210
-0
220
0
230
1
0
LWPOLYLINE
5
165
100
AcDbEntity
8
0
100
AcDbPolyline
90
4
70
1
43
0.0
10
-60.843100539226917
20
-8.3992725250385742
10
-57.458437491931136
20
-8.8749534187794854
42
1.0000025301418274
10
-57.124437808303114
20
-6.4983126815547028
10
-60.509499881219028
20
-6.0226038852242958
42
1.0001637462995314
0
LWPOLYLINE
5
166
100
AcDbEntity
8
0
100
AcDbPolyline
90
4
70
1
43
0.0
10
-59.800570347299654
20
-25.332480755196034
10
-63.185632420215548
20
-24.856771958865629
42
1.0001637462997008
10
-63.519233078223436
20
-27.233440598679898
10
-60.134570030927669
20
-27.70912149242081
42
1.0000025301198874
0
CIRCLE
5
167
100
AcDbEntity
8
0
100
AcDbCircle
10
-105.62007773791267
20
-32.916266787938433
30
0
40
1.3500000000000001
210
0
220
0
230
1
0
CIRCLE
5
168
100
AcDbEntity
8
0
100
AcDbCircle
10
-99.120077737912666
20
-30.816266787938432
30
0
40
1.3500000000000001
210
0
220
0
230
1
0
LWPOLYLINE
5
169
100
AcDbEntity
8
0
100
AcDbPolyline
90
4
70
1
43
0.0
10
-104.12300000000003
20
-41.487560000000002
42
-1.0001637462993618
10
-103.95600000000002
20
-39.093410000000006
10
-100.54600000004775
20
-39.331829999996664
42
-1.0000025301418274
10
-100.71340000000001
20
-41.725980000000007
0
CIRCLE
5
170
100
AcDbEntity
8
0
100
AcDbCircle
10
-96.939050000000009
20
-36.082968829483193
30
0
40
0.87499999999999822
210
0
220
0
230
1
0
CIRCLE
5
171
100
AcDbEntity
8
0
100
AcDbCircle
10
-102.00033523792671
20
-35.733781293897202
30
0
40
2
210
0
220
0
230
1
0
CIRCLE
5
172
100
AcDbEntity
8
0
100
AcDbCircle
10
-107.07801605345446
20
-35.35296000000001
30
0
40
0.87500000000000011
210
0
220
0
230
1
0
CIRCLE
5
173
100
AcDbEntity
8
0
100
AcDbCircle
10
-85.866122200891311
20
-34.755512892276869
30
0
40
1.3499999999999999
210
-0
220
0
230
1
0
CIRCLE
5
174
100
AcDbEntity
8
0
100
AcDbCircle
10
-79.235467279339829
20
-33.11404546606807
30
0
40
1.3499999999999999
210
-0
220
0
230
1
0
LWPOLYLINE
5
175
100
AcDbEntity
8
0
100
AcDbPolyline
90
4
70
1
43
0.0
10
-84.970594459005781
20
-43.410357728783126
42
-1.0001637462993618
10
-84.636993800997843
20
-41.033689088968842
10
-81.25193172807721
20
-41.509397885299926
42
-1.0000025301198874
10
-81.585931411709964
20
-43.886038622524026
0
CIRCLE
5
176
100
AcDbEntity
8
0
100
AcDbCircle
10
-87.490484178041839
20
-37.08456980631297
30
0
40
0.875
210
-0
220
0
230
1
0
CIRCLE
5
177
100
AcDbEntity
8
0
100
AcDbCircle
10
-82.451737088366372
20
-37.818664547167657
30
0
40
1.9999999999999998
210
-0
220
0
230
1
0
CIRCLE
5
178
100
AcDbEntity
8
0
100
AcDbCircle
10
-50.880435814536483
20
-58.825341116174926
30
0
40
1.3499999999999999
210
-0
220
0
230
1
0
CIRCLE
5
179
100
AcDbEntity
8
0
100
AcDbCircle
10
-52.504797791686997
20
-61.154398030211006
30
0
40
0.875
210
-0
220
0
230
1
0
CIRCLE
5
180
100
AcDbEntity
8
0
100
AcDbCircle
10
-67.032208661377425
20
-37.404031983770992
30
0
40
1.3499999999999999
210
-0
220
0
230
1
0
CIRCLE
5
181
100
AcDbEntity
8
0
100
AcDbCircle
10
-77.42713897805784
20
-38.520058890278037
30
0
40
0.87499999999999811
210
-0
220
0
230
1
0
LWPOLYLINE
5
182
100
AcDbEntity
8
0
100
AcDbPolyline
90
4
70
1
43
0.0
10
-62.41801818856807
20
-44.157916976793352
10
-65.803080261483956
20
-43.682208180462951
42
1.0001637462995314
10
-66.136680919491852
20
-46.058876820277213
10
-62.752017872196078
20
-46.534557714018128
42
1.0000025301198874
0
LWPOLYLINE
5
183
100
AcDbEntity
8
0
100
AcDbPolyline
90
4
70
1
43
0.0
10
-22.192012365815749
20
-30.625293623060269
10
-25.577074438731636
20
-30.149584826729871
42
1.0001637462995314
10
-25.910675096739524
20
-32.526253466544119
10
-22.526012049443771
20
-33.001934360285034
42
1.0000025301198874
0
CIRCLE
5
184
100
AcDbEntity
8
0
100
AcDbCircle
10
-69.647281723759278
20
-56.16812749230629
30
0
40
1.3499999999999999
210
-0
220
0
230
1
0
CIRCLE
5
185
100
AcDbEntity
8
0
100
AcDbCircle
10
-61.208298500925849
20
-59.932673490307423
30
0
40
0.87499999999999811
210
-0
220
0
230
1
0
CIRCLE
5
186
100
AcDbEntity
8
0
100
AcDbCircle
10
-63.016626802207824
20
-54.526660066097499
30
0
40
1.3499999999999999
210
-0
220
0
230
1
0
CIRCLE
5
187
100
AcDbEntity
8
0
100
AcDbCircle
10
-58.593225438543975
20
-41.168577981772145
30
0
40
0.87499999999999811
210
-0
220
0
230
1
0
CIRCLE
5
188
100
AcDbEntity
8
0
100
AcDbCircle
10
-48.265362752154587
20
-40.061245607639648
30
0
40
1.3499999999999999
210
-0
220
0
230
1
0
LWPOLYLINE
5
189
100
AcDbEntity
8
0
100
AcDbPolyline
90
4
70
1
43
0.0
10
-28.528122938007996
20
-51.351689688141434
10
-25.143459890712251
20
-51.827370581882342
42
1.0000025301198874
10
-24.809460207084225
20
-49.450729844657587
10
-28.194522280000108
20
-48.975021048327179
42
1.0001637462993618
0
LWPOLYLINE
5
190
100
AcDbEntity
8
0
100
AcDbPolyline
90
4
70
1
43
0.0
10
-68.751753981873748
20
-64.822972328812483
42
-1.0001637462993618
10
-68.418153323865823
20
-62.446303688998213
10
-65.033091250945233
20
-62.92201248532929
42
-1.0000025301198874
10
-65.367090934577945
20
-65.298653222553384
0
CIRCLE
5
191
100
AcDbEntity
8
0
100
AcDbCircle
10
-26.009265567368637
20
-45.759996506526015
30
0
40
1.9999999999999998
210
-0
220
0
230
1
0
CIRCLE
5
192
100
AcDbEntity
8
0
100
AcDbCircle
10
-63.617823548852485
20
-40.467183638661766
30
0
40
1.9999999999999998
210
-0
220
0
230
1
0
CIRCLE
5
193
100
AcDbEntity
8
0
100
AcDbCircle
10
-25.408068820724111
20
-59.819472933961755
30
0
40
1.3499999999999999
210
-0
220
0
230
1
0
LWPOLYLINE
5
194
100
AcDbEntity
8
0
100
AcDbPolyline
90
4
70
1
43
0.0
10
-47.36983501026905
20
-48.716090444145834
42
-1.0001637462993618
10
-47.036234352261118
20
-46.339421804331579
10
-43.651172279340514
20
-46.815130600662656
42
-1.0000025301198874
10
-43.985171962973261
20
-49.191771337886735
0
CIRCLE
5
195
100
AcDbEntity
8
0
100
AcDbCircle
10
-68.656570638527938
20
-39.733088897807093
30
0
40
0.875
210
-0
220
0
230
1
0
CIRCLE
5
196
100
AcDbEntity
8
0
100
AcDbCircle
10
-60.401553739825957
20
-35.7625645575622
30
0
40
1.3499999999999999
210
-0
220
0
230
1
0
CIRCLE
5
197
100
AcDbEntity
8
0
100
AcDbCircle
10
-39.826379529321173
20
-43.825791605640781
30
0
40
0.87499999999999811
210
-0
220
0
230
1
0
CIRCLE
5
198
100
AcDbEntity
8
0
100
AcDbCircle
10
-71.271643700909792
20
-58.497184406342377
30
0
40
0.875
210
-0
220
0
230
1
0
CIRCLE
5
199
100
AcDbEntity
8
0
100
AcDbCircle
10
-66.232896611234338
20
-59.231279147197043
30
0
40
1.9999999999999998
210
-0
220
0
230
1
0
CIRCLE
5
200
100
AcDbEntity
8
0
100
AcDbCircle
10
-23.59974051944215
20
-65.225486358171651
30
0
40
0.87499999999999811
210
-0
220
0
230
1
0
CIRCLE
5
201
100
AcDbEntity
8
0
100
AcDbCircle
10
-44.850977639629654
20
-43.124397262530408
30
0
40
1.9999999999999998
210
-0
220
0
230
1
0
CIRCLE
5
202
100
AcDbEntity
8
0
100
AcDbCircle
10
-49.889724729305094
20
-42.390302521675736
30
0
40
0.875
210
-0
220
0
230
1
0
CIRCLE
5
203
100
AcDbEntity
8
0
100
AcDbCircle
10
-41.634707830603134
20
-38.419778181430857
30
0
40
1.3499999999999999
210
-0
220
0
230
1
0
CIRCLE
5
204
100
AcDbEntity
8
0
100
AcDbCircle
10
-3.2475218902078802
20
-55.751946709867262
30
0
40
1.1000000000000001
210
0
220
0
230
1
0
CIRCLE
5
205
100
AcDbEntity
8
0
100
AcDbCircle
10
-44.249780892985058
20
-57.183873689966148
30
0
40
1.3499999999999999
210
-0
220
0
230
1
0
CIRCLE
5
206
100
AcDbEntity
8
0
100
AcDbCircle
10
-3.2475218902078802
20
-60.251946709867269
30
0
40
1.1000000000000001
210
0
220
0
230
1
0
CIRCLE
5
207
100
AcDbEntity
8
0
100
AcDbCircle
10
-22.79299575834213
20
-41.055377425426478
30
0
40
1.3499999999999999
210
-0
220
0
230
1
0
CIRCLE
5
208
100
AcDbEntity
8
0
100
AcDbCircle
10
-29.423650679893569
20
-42.696844851635269
30
0
40
1.3499999999999999
210
-0
220
0
230
1
0
CIRCLE
5
209
100
AcDbEntity
8
0
100
AcDbCircle
10
3.2524781097921203
20
-55.751946709867262
30
0
40
1.1000000000000001
210
0
220
0
230
1
0
CIRCLE
5
210
100
AcDbEntity
8
0
100
AcDbCircle
10
-32.038723742275529
20
-61.46094036017054
30
0
40
1.3499999999999999
210
-0
220
0
230
1
0
LWPOLYLINE
5
211
100
AcDbEntity
8
0
100
AcDbPolyline
90
4
70
1
43
0.0
10
-46.266245341722438
20
-65.579226109197904
42
-1.0000025301198874
10
-46.600245025355179
20
-67.955866846421998
10
-49.984908072650555
20
-67.480185952681154
42
-1.0001637462995314
10
-49.651307414643028
20
-65.103517312866842
0
CIRCLE
5
212
100
AcDbEntity
8
0
100
AcDbCircle
10
3.2524781097921203
20
-60.251946709867269
30
0
40
1.1000000000000001
210
0
220
0
230
1
0
CIRCLE
5
213
100
AcDbEntity
8
0
100
AcDbCircle
10
-31.048012657044076
20
-45.025901765671335
30
0
40
0.875
210
-0
220
0
230
1
0
CIRCLE
5
214
100
AcDbEntity
8
0
100
AcDbCircle
10
-47.466050702011565
20
-61.888492771065685
30
0
40
1.9999999999999998
210
-0
220
0
230
1
0
CIRCLE
5
215
100
AcDbEntity
8
0
100
AcDbCircle
10
-28.624338629750604
20
-64.524092015061271
30
0
40
1.9999999999999998
210
-0
220
0
230
1
0
LWPOLYLINE
5
216
100
AcDbEntity
8
0
100
AcDbPolyline
90
4
70
1
43
0.0
10
-31.143196000390002
20
-70.115785196676683
42
-1.0001637462993618
10
-30.809595342382075
20
-67.739116556862427
10
-27.424533269461477
20
-68.214825353193518
42
-1.0000025301198874
10
-27.758532953094225
20
-70.591466090417583
0
CIRCLE
5
217
100
AcDbEntity
8
0
100
AcDbCircle
10
-42.441452591703104
20
-62.589887114176051
30
0
40
0.87499999999999811
210
-0
220
0
230
1
0
CIRCLE
5
218
100
AcDbEntity
8
0
100
AcDbCircle
10
-20.984667457060166
20
-46.461390849636395
30
0
40
0.87499999999999811
210
-0
220
0
230
1
0
CIRCLE
5
219
100
AcDbEntity
8
0
100
AcDbCircle
10
-33.663085719426029
20
-63.789997274206598
30
0
40
0.875
210
-0
220
0
230
1
0
CIRCLE
5
220
100
AcDbEntity
8
0
100
AcDbCircle
10
-55.97577759727556
20
-22.343141760174817
30
0
40
0.87499999999999811
210
-0
220
0
230
1
0
CIRCLE
5
221
100
AcDbEntity
8
0
100
AcDbCircle
10
-72.13355859779297
20
-0.86045459503935273
30
0
40
0.87499999999999811
210
-0
220
0
230
1
0
CIRCLE
5
222
100
AcDbEntity
8
0
100
AcDbCircle
10
-73.941886899074959
20
4.5455588291706395
30
0
40
1.3499999999999999
210
-0
220
0
230
1
0
LWPOLYLINE
5
223
100
AcDbEntity
8
0
100
AcDbPolyline
90
4
70
1
43
0.0
10
-75.958351347817086
20
-3.8497935900605862
10
-79.343413420733015
20
-3.3740847937301766
42
1.0001637462995314
10
-79.677014078740896
20
-5.7507534335444621
10
-76.292351031445108
20
-6.226434327285375
42
1.0000025301198874
0
CIRCLE
5
224
100
AcDbEntity
8
0
100
AcDbCircle
10
-82.196903797777011
20
0.5750344889257164
30
0
40
0.875
210
-0
220
0
230
1
0
CIRCLE
5
225
100
AcDbEntity
8
0
100
AcDbCircle
10
-80.572541820626483
20
2.9040914029618303
30
0
40
1.3499999999999999
210
-0
220
0
230
1
0
CIRCLE
5
226
100
AcDbEntity
8
0
100
AcDbCircle
10
-102.97007773791266
20
4.9837332120615745
30
0
40
1.3500000000000001
210
0
220
0
230
1
0
CIRCLE
5
227
100
AcDbEntity
8
0
100
AcDbCircle
10
-61.738628281112497
20
0.25557231146769221
30
0
40
1.3499999999999999
210
-0
220
0
230
1
0
CIRCLE
5
228
100
AcDbEntity
8
0
100
AcDbCircle
10
-77.158156708101515
20
-0.15906025192896855
30
0
40
1.9999999999999998
210
-0
220
0
230
1
0
CIRCLE
5
229
100
AcDbEntity
8
0
100
AcDbCircle
10
-63.362990258263025
20
-2.0734846025684148
30
0
40
0.875
210
-0
220
0
230
1
0
CIRCLE
5
230
100
AcDbEntity
8
0
100
AcDbCircle
10
-44.596144349040081
20
-4.7306982264370729
30
0
40
0.875
210
-0
220
0
230
1
0
CIRCLE
5
231
100
AcDbEntity
8
0
100
AcDbCircle
10
-66.039122797259537
20
-20.907652676209764
30
0
40
0.875
210
-0
220
0
230
1
0
CIRCLE
5
232
100
AcDbEntity
8
0
100
AcDbCircle
10
-64.414760820109024
20
-18.578595762173663
30
0
40
1.3499999999999999
210
-0
220
0
230
1
0
LWPOLYLINE
5
233
100
AcDbEntity
8
0
100
AcDbPolyline
90
4
70
1
43
0.0
10
-78.634483886808837
20
-22.683961663702597
42
-1.0000025301198874
10
-78.968483570441578
20
-25.060602400926708
10
-82.353146617737409
20
-24.584921507185797
42
-1.0001637462993618
10
-82.01954595972947
20
-22.20825286737152
0
CIRCLE
5
234
100
AcDbEntity
8
0
100
AcDbCircle
10
-79.834289247097985
20
-18.993228325570321
30
0
40
1.9999999999999998
210
-0
220
0
230
1
0
CIRCLE
5
235
100
AcDbEntity
8
0
100
AcDbCircle
10
-84.873036336773453
20
-18.259133584715638
30
0
40
0.875
210
-0
220
0
230
1
0
CIRCLE
5
236
100
AcDbEntity
8
0
100
AcDbCircle
10
-74.809691136789453
20
-19.694622668680704
30
0
40
0.87499999999999811
210
-0
220
0
230
1
0
CIRCLE
5
237
100
AcDbEntity
8
0
100
AcDbCircle
10
-94.289050000000003
20
1.8170311705168114
30
0
40
0.87499999999999822
210
0
220
0
230
1
0
CIRCLE
5
238
100
AcDbEntity
8
0
100
AcDbCircle
10
-96.470077737912661
20
7.083733212061575
30
0
40
1.3500000000000001
210
0
220
0
230
1
0
CIRCLE
5
239
100
AcDbEntity
8
0
100
AcDbCircle
10
-99.3503352379267
20
2.1662187061028049
30
0
40
2
210
0
220
0
230
1
0
CIRCLE
5
240
100
AcDbEntity
8
0
100
AcDbCircle
10
-104.27007773791267
20
-13.966266787938428
30
0
40
1.3500000000000001
210
0
220
0
230
1
0
CIRCLE
5
241
100
AcDbEntity
8
0
100
AcDbCircle
10
-97.770077737912672
20
-11.866266787938429
30
0
40
1.3500000000000001
210
0
220
0
230
1
0
LWPOLYLINE
5
242
100
AcDbEntity
8
0
100
AcDbPolyline
90
4
70
1
43
0.0
10
-102.77300000000004
20
-22.537560000000006
42
-1.0001637462993618
10
-102.60600000000002
20
-20.143410000000003
10
-99.196000000047761
20
-20.381829999996661
42
-1.0000025301418274
10
-99.363400000000013
20
-22.775980000000004
0
CIRCLE
5
243
100
AcDbEntity
8
0
100
AcDbCircle
10
-100.65033523792671
20
-16.783781293897199
30
0
40
2
210
0
220
0
230
1
0
CIRCLE
5
244
100
AcDbEntity
8
0
100
AcDbCircle
10
-105.72801605345447
20
-16.40296
30
0
40
0.87500000000000011
210
0
220
0
230
1
0
CIRCLE
5
245
100
AcDbEntity
8
0
100
AcDbCircle
10
-95.589050000000015
20
-17.13296882948319
30
0
40
0.87499999999999822
210
0
220
0
230
1
0
CIRCLE
5
246
100
AcDbEntity
8
0
100
AcDbCircle
10
-76.618019438071443
20
-14.288609244470729
30
0
40
1.3499999999999999
210
-0
220
0
230
1
0
CIRCLE
5
247
100
AcDbEntity
8
0
100
AcDbCircle
10
-18.367219615791683
20
-27.635954628039073
30
0
40
0.87499999999999811
210
-0
220
0
230
1
0
CIRCLE
5
248
100
AcDbEntity
8
0
100
AcDbCircle
10
-47.272276888036657
20
-23.564866300078407
30
0
40
0.875
210
-0
220
0
230
1
0
LWPOLYLINE
5
249
100
AcDbEntity
8
0
100
AcDbPolyline
90
4
70
1
43
0.0
10
65.784553483426393
20
-43.685982169591917
10
62.399499859599445
20
-44.161751084313501
42
1.0001637462991921
10
62.733920984848204
20
-46.538304414976835
10
66.118583349634847
20
-46.062618664931563
42
1.0000025301198874
0
CIRCLE
5
250
100
AcDbEntity
8
0
100
AcDbCircle
10
56.855275292159504
20
-19.668226546124927
30
0
40
1.3499999999999999
210
0
220
-0
230
1
0
CIRCLE
5
251
100
AcDbEntity
8
0
100
AcDbCircle
10
39.81666409517328
20
-43.793536941632148
30
0
40
0.875
210
0
220
-0
230
1
0
CIRCLE
5
252
100
AcDbEntity
8
0
100
AcDbCircle
10
62.776620146211826
20
-16.262690594268584
30
0
40
1.3499999999999999
210
0
220
-0
230
1
0
CIRCLE
5
253
100
AcDbEntity
8
0
100
AcDbCircle
10
27.810909269736893
20
-40.341701660781695
30
0
40
1.3499999999999999
210
0
220
-0
230
1
0
LWPOLYLINE
5
254
100
AcDbEntity
8
0
100
AcDbPolyline
90
4
70
1
43
0.0
10
44.400982884035294
20
-27.530028641578109
10
41.015929260208317
20
-28.005797556299711
42
1.0001637462993618
10
41.350350385457091
20
-30.382350886963067
10
44.735012750243754
20
-29.906665136917798
42
1.0000025301198874
0
CIRCLE
5
255
100
AcDbEntity
8
0
100
AcDbCircle
10
44.025260177843741
20
-18.904085008317935
30
0
40
1.3499999999999999
210
0
220
-0
230
1
0
CIRCLE
5
256
100
AcDbEntity
8
0
100
AcDbCircle
10
47.253636153307703
20
-23.602235809324846
30
0
40
0.87499999999999811
210
0
220
-0
230
1
0
CIRCLE
5
257
100
AcDbEntity
8
0
100
AcDbCircle
10
66.004996121675788
20
-20.960841395275487
30
0
40
0.87499999999999811
210
0
220
-0
230
1
0
CIRCLE
5
258
100
AcDbEntity
8
0
100
AcDbCircle
10
60.100805511951464
20
2.5735346948538811
30
0
40
1.3499999999999999
210
0
220
-0
230
1
0
CIRCLE
5
259
100
AcDbEntity
8
0
100
AcDbCircle
10
24.522800641533685
20
-62.505992558943248
30
0
40
1.3499999999999999
210
0
220
-0
230
1
0
LWPOLYLINE
5
260
100
AcDbEntity
8
0
100
AcDbPolyline
90
4
70
1
43
0.0
10
57.425895719564807
20
-8.9047311837912719
10
60.810558084351484
20
-8.4290454337460066
42
1.0000025301198874
10
60.476528218143024
20
-6.0524089384063107
10
57.09147459431604
20
-6.5281778531279109
42
1.0001637462993618
0
CIRCLE
5
261
100
AcDbEntity
8
0
100
AcDbCircle
10
34.508638829889797
20
-6.1599637104464229
30
0
40
0.875
210
0
220
-0
230
1
0
CIRCLE
5
262
100
AcDbEntity
8
0
100
AcDbCircle
10
21.889564415684589
20
-43.747237612638031
30
0
40
1.3499999999999999
210
0
220
-0
230
1
0
CIRCLE
5
263
100
AcDbEntity
8
0
100
AcDbCircle
10
26.016001062157351
20
-45.750595883177276
30
0
40
1.9999999999999996
210
0
220
-0
230
1
0
CIRCLE
5
264
100
AcDbEntity
8
0
100
AcDbCircle
10
58.305897304371911
20
-2.8353595275417351
30
0
40
1.9999999999999996
210
0
220
-0
230
1
0
LWPOLYLINE
5
265
100
AcDbEntity
8
0
100
AcDbPolyline
90
4
70
1
43
0.0
10
68.417789709275453
20
-62.444737115896999
10
65.032736085448505
20
-62.92050603061859
42
1.0001637462995314
10
65.367157210697286
20
-65.297059361281924
10
68.751819575483893
20
-64.821373611236638
42
1.0000025301089173
0
LWPOLYLINE
5
266
100
AcDbEntity
8
0
100
AcDbPolyline
90
4
70
1
43
0.0
10
47.033193515058315
20
-46.327376583641346
10
43.648139891231352
20
-46.80314549836293
42
1.0001637462995314
10
43.982561016480126
20
-49.179698829026279
10
47.367223381266761
20
-48.704013078980999
42
1.0000025301089173
0
LWPOLYLINE
5
267
100
AcDbEntity
8
0
100
AcDbPolyline
90
4
70
1
43
0.0
10
63.152342852403379
20
-24.888634227528733
10
59.767289228576416
20
-25.364403142250325
42
1.0001637462993618
10
60.10171035382519
20
-27.740956472913684
10
63.486372718611847
20
-27.265270722868419
42
1.0000025301089173
0
CIRCLE
5
268
100
AcDbEntity
8
0
100
AcDbCircle
10
42.449900321022369
20
-62.552291887937308
30
0
40
0.875
210
0
220
-0
230
1
0
LWPOLYLINE
5
269
100
AcDbEntity
8
0
100
AcDbPolyline
90
4
70
1
43
0.0
10
46.615797242329208
20
-67.938453775331411
10
50.000459607115822
20
-67.462768025286138
42
1.0000025301198874
10
49.666429740907382
20
-65.086131529946485
10
46.281376117080427
20
-65.561900444668069
42
1.0001637462995314
0
LWPOLYLINE
5
270
100
AcDbEntity
8
0
100
AcDbPolyline
90
4
70
1
43
0.0
10
28.186631975933164
20
-48.967645294041176
42
-1.0000025301198874
10
28.520661842136896
20
-51.344281789381498
10
25.13599947735063
20
-51.819967539426706
42
-1.0001637462995314
10
24.80157835210148
20
-49.443414208763421
0
LWPOLYLINE
5
271
100
AcDbEntity
8
0
100
AcDbPolyline
90
4
70
1
43
0.0
10
99.369497429296445
20
-22.766433185714586
42
-1.0001637462995314
10
99.201670917112423
20
-20.372340981076714
10
102.6116666822567
20
-20.133860419751933
42
-1.0000025301198874
10
102.77909708720813
20
-22.528008293630542
0
CIRCLE
5
272
100
AcDbEntity
8
0
100
AcDbCircle
10
60.981711938632294
20
-21.671584816664176
30
0
40
1.9999999999999996
210
0
220
-0
230
1
0
CIRCLE
5
273
100
AcDbEntity
8
0
100
AcDbCircle
10
61.201260289390461
20
-59.910897473887836
30
0
40
0.875
210
0
220
-0
230
1
0
CIRCLE
5
274
100
AcDbEntity
8
0
100
AcDbCircle
10
62.120722149031657
20
-57.224329434493256
30
0
40
1.3499999999999999
210
0
220
-0
230
1
0
CIRCLE
5
275
100
AcDbEntity
8
0
100
AcDbCircle
10
37.184453464150202
20
-24.996188999568911
30
0
40
0.875
210
0
220
-0
230
1
0
CIRCLE
5
276
100
AcDbEntity
8
0
100
AcDbCircle
10
20.97010255604339
20
-46.433805652032632
30
0
40
0.875
210
0
220
-0
230
1
0
CIRCLE
5
277
100
AcDbEntity
8
0
100
AcDbCircle
10
59.487485923182575
20
-38.465574488188132
30
0
40
1.3499999999999999
210
0
220
-0
230
1
0
CIRCLE
5
278
100
AcDbEntity
8
0
100
AcDbCircle
10
65.408830777234854
20
-35.060038536331824
30
0
40
1.3499999999999999
210
0
220
-0
230
1
0
CIRCLE
5
279
100
AcDbEntity
8
0
100
AcDbCircle
10
46.657470808866762
20
-37.701432950381232
30
0
40
1.3499999999999999
210
0
220
-0
230
1
0
CIRCLE
5
280
100
AcDbEntity
8
0
100
AcDbCircle
10
49.885846784330703
20
-42.399583751388114
30
0
40
0.87499999999999811
210
0
220
-0
230
1
0
CIRCLE
5
281
100
AcDbEntity
8
0
100
AcDbCircle
10
63.613922569655308
20
-40.46893275872737
30
0
40
1.9999999999999996
210
0
220
-0
230
1
0
CIRCLE
5
282
100
AcDbEntity
8
0
100
AcDbCircle
10
44.86256260128723
20
-43.110327172776792
30
0
40
1.9999999999999996
210
0
220
-0
230
1
0
CIRCLE
5
283
100
AcDbEntity
8
0
100
AcDbCircle
10
68.637206752698773
20
-39.758189337338692
30
0
40
0.87499999999999811
210
0
220
-0
230
1
0
CIRCLE
5
284
100
AcDbEntity
8
0
100
AcDbCircle
10
33.67252147104989
20
-63.798607408093787
30
0
40
0.87499999999999811
210
0
220
-0
230
1
0
CIRCLE
5
285
100
AcDbEntity
8
0
100
AcDbCircle
10
77.438773124564108
20
-38.45992829775799
30
0
40
0.875
210
0
220
-0
230
1
0
CIRCLE
5
286
100
AcDbEntity
8
0
100
AcDbCircle
10
43.369362180663565
20
-59.865723848542729
30
0
40
1.3499999999999999
210
0
220
-0
230
1
0
CIRCLE
5
287
100
AcDbEntity
8
0
100
AcDbCircle
10
49.290707034715822
20
-56.460187896686413
30
0
40
1.3499999999999999
210
0
220
-0
230
1
0
CIRCLE
5
288
100
AcDbEntity
8
0
100
AcDbCircle
10
38.103915323791398
20
-22.309620960174293
30
0
40
1.3499999999999999
210
0
220
-0
230
1
0
CIRCLE
5
289
100
AcDbEntity
8
0
100
AcDbCircle
10
42.230351970264195
20
-24.312979230713545
30
0
40
1.9999999999999996
210
0
220
-0
230
1
0
CIRCLE
5
290
100
AcDbEntity
8
0
100
AcDbCircle
10
47.495798827136298
20
-61.869082119081952
30
0
40
1.9999999999999996
210
0
220
-0
230
1
0
CIRCLE
5
291
100
AcDbEntity
8
0
100
AcDbCircle
10
68.042067003083901
20
-53.818793482636949
30
0
40
1.3499999999999999
210
0
220
-0
230
1
0
CIRCLE
5
292
100
AcDbEntity
8
0
100
AcDbCircle
10
52.519083010179756
20
-61.15833869769326
30
0
40
0.87499999999999811
210
0
220
-0
230
1
0
CIRCLE
5
293
100
AcDbEntity
8
0
100
AcDbCircle
10
79.852460999655023
20
-18.979370586839465
30
0
40
1.9999999999999996
210
0
220
-0
230
1
0
CIRCLE
5
294
100
AcDbEntity
8
0
100
AcDbCircle
10
66.247158795504376
20
-59.227687705032473
30
0
40
1.9999999999999996
210
0
220
-0
230
1
0
CIRCLE
5
295
100
AcDbEntity
8
0
100
AcDbCircle
10
63.32918148741544
20
-2.1246161061530398
30
0
40
0.87499999999999811
210
0
220
-0
230
1
0
LWPOLYLINE
5
296
100
AcDbEntity
8
0
100
AcDbPolyline
90
4
70
1
43
0.0
10
27.769235703199712
20
-70.578722485731888
42
-1.0001637462995314
10
27.434814577950561
20
-68.202169155068603
10
30.819868201782235
20
-67.726400240346379
42
-1.0000025301198874
10
31.15389806798596
20
-70.103036735686672
0
CIRCLE
5
297
100
AcDbEntity
8
0
100
AcDbCircle
10
74.806562493541051
20
-19.662580355694828
30
0
40
0.875
210
0
220
-0
230
1
0
CIRCLE
5
298
100
AcDbEntity
8
0
100
AcDbCircle
10
75.72602435318224
20
-16.976012316300221
30
0
40
1.3499999999999999
210
0
220
-0
230
1
0
CIRCLE
5
299
100
AcDbEntity
8
0
100
AcDbCircle
10
71.270442978547806
20
-58.516944283643788
30
0
40
0.87499999999999811
210
0
220
-0
230
1
0
CIRCLE
5
300
100
AcDbEntity
8
0
100
AcDbCircle
10
84.875745182698509
20
-18.268627165450784
30
0
40
0.87499999999999811
210
0
220
-0
230
1
0
CIRCLE
5
301
100
AcDbEntity
8
0
100
AcDbCircle
10
107.08490947480226
20
-35.359064528353187
30
0
40
0.874999999999998
210
-0
220
0
230
1
0
CIRCLE
5
302
100
AcDbEntity
8
0
100
AcDbCircle
10
81.647369207234547
20
-13.570476364443882
30
0
40
1.3499999999999999
210
0
220
-0
230
1
0
LWPOLYLINE
5
303
100
AcDbEntity
8
0
100
AcDbPolyline
90
4
70
1
43
0.0
10
41.725168249774924
20
-8.6938033524556371
10
38.340114625947926
20
-9.1695722671772391
42
1.0001637462993618
10
38.674535751196707
20
-11.546125597840607
10
42.059198115983385
20
-11.070439847795338
42
1.0000025301198874
0
LWPOLYLINE
5
304
100
AcDbEntity
8
0
100
AcDbPolyline
90
4
70
1
43
0.0
10
81.604670045870918
20
-43.846090185152093
10
84.989332410657568
20
-43.370404435106813
42
1.0000025301089173
10
84.655302544449114
20
-40.993767939767167
10
81.270248920622166
20
-41.469536854488751
42
1.0001637462993618
0
CIRCLE
5
305
100
AcDbEntity
8
0
100
AcDbCircle
10
28.649237288006432
20
-64.509350829482472
30
0
40
1.9999999999999996
210
0
220
-0
230
1
0
CIRCLE
5
306
100
AcDbEntity
8
0
100
AcDbCircle
10
31.039285245200837
20
-45.039852461788584
30
0
40
0.87499999999999811
210
0
220
-0
230
1
0
CIRCLE
5
307
100
AcDbEntity
8
0
100
AcDbCircle
10
84.279579838257575
20
-32.367824306507096
30
0
40
1.3499999999999999
210
0
220
-0
230
1
0
CIRCLE
5
308
100
AcDbEntity
8
0
100
AcDbCircle
10
35.428100689531
20
-3.4733956710517977
30
0
40
1.3499999999999999
210
0
220
-0
230
1
0
LWPOLYLINE
5
309
100
AcDbEntity
8
0
100
AcDbPolyline
90
4
70
1
43
0.0
10
82.023091913456881
20
-22.196419997699714
42
-1.0000025301089173
10
82.357121779634568
20
-24.573056493043701
10
78.972459414848288
20
-25.04874224308891
42
-1.0001637462995314
10
78.638038289599152
20
-22.672188912425611
0
CIRCLE
5
310
100
AcDbEntity
8
0
100
AcDbCircle
10
41.349445543583371
20
-0.067859719195420554
30
0
40
1.3499999999999999
210
0
220
-0
230
1
0
LWPOLYLINE
5
311
100
AcDbEntity
8
0
100
AcDbPolyline
90
4
70
1
43
0.0
10
76.29959806397666
20
-6.2210561943146283
42
-1.0001637462995314
10
75.965176938727524
20
-3.8445028636513188
10
79.350230562585281
20
-3.3687339489254011
42
-1.0000025301089173
10
79.684260428762968
20
-5.7453704442694118
0
LWPOLYLINE
5
312
100
AcDbEntity
8
0
100
AcDbPolyline
90
4
70
1
43
0.0
10
22.503788846326774
20
-33.02261959736358
42
-1.0001637462991921
10
22.169367721078427
20
-30.646066266700153
10
25.554421344857985
20
-30.170297351985226
42
-1.0000025301418274
10
25.888451211113871
20
-32.546933847318243
0
CIRCLE
5
313
100
AcDbEntity
8
0
100
AcDbCircle
10
72.133701142669409
20
-0.83489430692051725
30
0
40
0.875
210
0
220
-0
230
1
0
CIRCLE
5
314
100
AcDbEntity
8
0
100
AcDbCircle
10
87.50795581372148
20
-37.06597510751395
30
0
40
0.87499999999999811
210
0
220
-0
230
1
0
CIRCLE
5
315
100
AcDbEntity
8
0
100
AcDbCircle
10
82.484671630678022
20
-37.776718528902634
30
0
40
1.9999999999999996
210
0
220
-0
230
1
0
CIRCLE
5
316
100
AcDbEntity
8
0
100
AcDbCircle
10
23.603338781892489
20
-65.192560598337835
30
0
40
0.875
210
0
220
-0
230
1
0
CIRCLE
5
317
100
AcDbEntity
8
0
100
AcDbCircle
10
30.444145495585961
20
-59.100456607086926
30
0
40
1.3499999999999999
210
0
220
-0
230
1
0
CIRCLE
5
318
100
AcDbEntity
8
0
100
AcDbCircle
10
39.554537336003811
20
-5.4767539415910527
30
0
40
1.9999999999999996
210
0
220
-0
230
1
0
CIRCLE
5
319
100
AcDbEntity
8
0
100
AcDbCircle
10
53.259998798257911
20
-3.5185692963971036
30
0
40
0.875
210
0
220
-0
230
1
0
CIRCLE
5
320
100
AcDbEntity
8
0
100
AcDbCircle
10
44.577821519047347
20
-4.7660105202023555
30
0
40
0.87499999999999811
210
0
220
-0
230
1
0
LWPOLYLINE
5
321
100
AcDbEntity
8
0
100
AcDbPolyline
90
4
70
1
43
0.0
10
100.72304689498864
20
-41.710871187760489
42
-1.0001637462993618
10
100.555220382805
20
-39.316778983122582
10
103.96521614794928
20
-39.07829842179779
42
-1.0000025301198874
10
104.13264655290071
20
-41.472446295676406
0
CIRCLE
5
322
100
AcDbEntity
8
0
100
AcDbCircle
10
54.179460657899114
20
-0.83200125700248528
30
0
40
1.3499999999999999
210
0
220
-0
230
1
0
CIRCLE
5
323
100
AcDbEntity
8
0
100
AcDbCircle
10
96.94301754948448
20
-36.04723144080463
30
0
40
0.87499999999999978
210
-0
220
0
230
1
0
CIRCLE
5
324
100
AcDbEntity
8
0
100
AcDbCircle
10
73.053163002310598
20
1.8516737324740962
30
0
40
1.3499999999999999
210
0
220
-0
230
1
0
CIRCLE
5
325
100
AcDbEntity
8
0
100
AcDbCircle
10
78.358234984205311
20
-35.773360258363397
30
0
40
1.3499999999999999
210
0
220
-0
230
1
0
CIRCLE
5
326
100
AcDbEntity
8
0
100
AcDbCircle
10
25.178698638713861
20
-21.544353718718359
30
0
40
1.3499999999999999
210
0
220
-0
230
1
0
CIRCLE
5
327
100
AcDbEntity
8
0
100
AcDbCircle
10
23.383790431134308
20
-26.953247941113979
30
0
40
1.9999999999999996
210
0
220
-0
230
1
0
CIRCLE
5
328
100
AcDbEntity
8
0
100
AcDbCircle
10
28.40707461417783
20
-26.24250451972528
30
0
40
0.87499999999999811
210
0
220
-0
230
1
0
CIRCLE
5
329
100
AcDbEntity
8
0
100
AcDbCircle
10
18.337891925020308
20
-27.636457709969346
30
0
40
0.875
210
0
220
-0
230
1
0
CIRCLE
5
330
100
AcDbEntity
8
0
100
AcDbCircle
10
19.257353784661507
20
-24.949889670574727
30
0
40
1.3499999999999999
210
0
220
-0
230
1
0
CIRCLE
5
331
100
AcDbEntity
8
0
100
AcDbCircle
10
82.202883831826924
20
0.55905888332354303
30
0
40
0.87499999999999811
210
0
220
-0
230
1
0
LWPOLYLINE
5
332
100
AcDbEntity
8
0
100
AcDbPolyline
90
4
70
1
43
0.0
10
22.878606710645041
20
-11.334072062856031
10
19.493553086818032
20
-11.809840977577634
42
1.0001637462997008
10
19.827974212066817
20
-14.18639430824101
10
23.212636576853498
20
-13.710708558195739
42
1.0000025301089173
0
CIRCLE
5
333
100
AcDbEntity
8
0
100
AcDbCircle
10
78.974507856362948
20
5.257209684330455
30
0
40
1.3499999999999999
210
0
220
-0
230
1
0
CIRCLE
5
334
100
AcDbEntity
8
0
100
AcDbCircle
10
96.694095693456859
20
-14.486908161152465
30
0
40
1.3499999999999996
210
-0
220
0
230
1
0
CIRCLE
5
335
100
AcDbEntity
8
0
100
AcDbCircle
10
95.589468083791886
20
-17.102793438758749
30
0
40
0.87499999999999978
210
-0
220
0
230
1
0
CIRCLE
5
336
100
AcDbEntity
8
0
100
AcDbCircle
10
102.02428280474638
20
-35.717670023265455
30
0
40
1.9999999999999993
210
-0
220
0
230
1
0
CIRCLE
5
337
100
AcDbEntity
8
0
100
AcDbCircle
10
15.662077290759893
20
-8.800232420846811
30
0
40
0.875
210
0
220
-0
230
1
0
CIRCLE
5
338
100
AcDbEntity
8
0
100
AcDbCircle
10
105.73136000910969
20
-16.414626526307302
30
0
40
0.874999999999998
210
-0
220
0
230
1
0
CIRCLE
5
339
100
AcDbEntity
8
0
100
AcDbCircle
10
77.179599648783409
20
-0.15168453806515048
30
0
40
1.9999999999999996
210
0
220
-0
230
1
0
CIRCLE
5
340
100
AcDbEntity
8
0
100
AcDbCircle
10
100.67073333905381
20
-16.773232021219574
30
0
40
1.9999999999999993
210
-0
220
0
230
1
0
CIRCLE
5
341
100
AcDbEntity
8
0
100
AcDbCircle
10
22.502884004453485
20
-2.7081284295957939
30
0
40
1.3499999999999999
210
0
220
-0
230
1
0
CIRCLE
5
342
100
AcDbEntity
8
0
100
AcDbCircle
10
104.19212409395331
20
-30.447158062600721
30
0
40
1.3499999999999996
210
-0
220
0
230
1
0
CIRCLE
5
343
100
AcDbEntity
8
0
100
AcDbCircle
10
16.581539150401099
20
-6.1136643814521801
30
0
40
1.3499999999999999
210
0
220
-0
230
1
0
CIRCLE
5
344
100
AcDbEntity
8
0
100
AcDbCircle
10
25.731259979917471
20
-7.4062792306027392
30
0
40
0.87499999999999811
210
0
220
-0
230
1
0
LWPOLYLINE
5
345
100
AcDbEntity
8
0
100
AcDbPolyline
90
4
70
1
43
0.0
10
98.041312322379468
20
-3.8075540749451831
42
-1.0001637462993618
10
97.873485810195831
20
-1.4134618703072706
10
101.28348157534012
20
-1.1749813089824839
42
-1.0000025301198874
10
101.45091198029155
20
-3.56912918286111
0
CIRCLE
5
346
100
AcDbEntity
8
0
100
AcDbCircle
10
20.707975796873921
20
-8.117022651991439
30
0
40
1.9999999999999996
210
0
220
-0
230
1
0
CIRCLE
5
347
100
AcDbEntity
8
0
100
AcDbCircle
10
94.261282976875265
20
1.856085672010712
30
0
40
0.87499999999999978
210
-0
220
0
230
1
0
CIRCLE
5
348
100
AcDbEntity
8
0
100
AcDbCircle
10
98.047645159149454
20
-33.431346163198356
30
0
40
1.3499999999999996
210
-0
220
0
230
1
0
CIRCLE
5
349
100
AcDbEntity
8
0
100
AcDbCircle
10
95.365910586540238
20
4.4719709496170088
30
0
40
1.3499999999999996
210
-0
220
0
230
1
0
CIRCLE
5
350
100
AcDbEntity
8
0
100
AcDbCircle
10
102.83857462826074
20
-11.502720060554822
30
0
40
1.3499999999999996
210
-0
220
0
230
1
0
CIRCLE
5
351
100
AcDbEntity
8
0
100
AcDbCircle
10
101.51038952134415
20
7.4561590502146702
30
0
40
1.3499999999999996
210
-0
220
0
230
1
0
CIRCLE
5
352
100
AcDbEntity
8
0
100
AcDbCircle
10
104.40317490219313
20
2.5442525844621637
30
0
40
0.874999999999998
210
-0
220
0
230
1
0
CIRCLE
5
353
100
AcDbEntity
8
0
100
AcDbCircle
10
99.342548232137219
20
2.185647089549887
30
0
40
1.9999999999999993
210
-0
220
0
230
1
0
CIRCLE
5
354
100
AcDbEntity
8
0
100
AcDbCircle
10
40.736125954814483
20
-41.106968902237561
30
0
40
1.3499999999999999
210
0
220
-0
230
1
0
CIRCLE
5
355
100
AcDbEntity
8
0
100
AcDbCircle
10
55.935813432518309
20
-22.354794585519539
30
0
40
0.875
210
0
220
-0
230
1
0
CIRCLE
5
356
100
AcDbEntity
8
0
100
AcDbCircle
10
58.568024063541372
20
-41.152142527582726
30
0
40
0.875
210
0
220
-0
230
1
0
CIRCLE
5
357
100
AcDbEntity
8
0
100
AcDbCircle
10
-87.899520144639794
20
4.408653551907614
30
0
40
1.2499999999999989
210
0
220
-0
230
1
0
CIRCLE
5
358
100
AcDbEntity
8
0
100
AcDbCircle
10
-55.511387154627919
20
-51.183606189146751
30
0
40
1.2499999999999958
210
0
220
-0
230
1
0
CIRCLE
5
359
100
AcDbEntity
8
0
100
AcDbCircle
10
-31.382632730969895
20
-16.188169205921909
30
0
40
1.2499999999999982
210
0
220
-0
230
1
0
CIRCLE
5
360
100
AcDbEntity
8
0
100
AcDbCircle
10
-12.400133740070212
20
-44.071240936821766
30
0
40
1.25
210
0
220
-0
230
1
0
CIRCLE
5
361
100
AcDbEntity
8
0
100
AcDbCircle
10
-13.886131381905503
20
-69.791379440821174
30
0
40
1.2500000000000024
210
0
220
-0
230
1
0
CIRCLE
5
362
100
AcDbEntity
8
0
100
AcDbCircle
10
14.069555165496324
20
-69.774704551403758
30
0
40
1.25
210
0
220
-0
230
1
0
CIRCLE
5
363
100
AcDbEntity
8
0
100
AcDbCircle
10
12.400133740070212
20
-44.03022613145658
30
0
40
1.2500000000000009
210
0
220
-0
230
1
0
CIRCLE
5
364
100
AcDbEntity
8
0
100
AcDbCircle
10
55.511387154627919
20
-51.183606189146751
30
0
40
1.25
210
0
220
-0
230
1
0
CIRCLE
5
365
100
AcDbEntity
8
0
100
AcDbCircle
10
91.226034921245187
20
-27.092339739007485
30
0
40
1.25
210
0
220
-0
230
1
0
CIRCLE
5
366
100
AcDbEntity
8
0
100
AcDbCircle
10
88.009344910126373
20
4.4086535519076131
30
0
40
1.25
210
0
220
-0
230
1
0
CIRCLE
5
367
100
AcDbEntity
8
0
100
AcDbCircle
10
31.523477661478342
20
-16.203818642645064
30
0
40
1.2499999999999991
210
0
220
-0
230
1
0
CIRCLE
5
368
100
AcDbEntity
8
0
100
AcDbCircle
10
-91.226034921245187
20
-27.092339739007485
30
0
40
1.25
210
0
220
-0
230
1
0
ENDSEC
0
SECTION
2
OBJECTS
0
DICTIONARY
5
C
100
AcDbDictionary
3
ACAD_GROUP
350
D
3
ACAD_MLINESTYLE
350
17
0
DICTIONARY
5
D
100
AcDbDictionary
0
DICTIONARY
5
1A
330
C
100
AcDbDictionary
0
DICTIONARY
5
17
100
AcDbDictionary
0
ENDSEC
0
EOF
